<svg width="22" height="22" viewBox="0 0 22 22" fill="none" xmlns="http://www.w3.org/2000/svg">
<g clip-path="url(#clip0_4218_13571)">
<path d="M4.82127 11.2392C7.03755 11.2392 8.90034 9.38415 8.90034 7.16013C8.90034 4.91992 7.06148 3.08105 4.82127 3.08105C2.58915 3.08105 0.742188 4.91992 0.742188 7.16013C0.742188 9.40035 2.58915 11.2392 4.82127 11.2392ZM13.1878 3.21766C11.895 3.21766 10.4336 3.44227 9.05278 4.17281C9.29265 4.51857 9.48695 4.8938 9.63088 5.28924C10.7871 4.69457 11.9433 4.46996 13.1635 4.46996C16.9377 4.46996 20.0852 6.79081 20.0852 10.9579C20.0852 13.3911 19.2582 15.0289 17.9415 15.0289C17.0578 15.0289 16.5522 14.5152 16.5522 13.64V8.19592C16.5522 7.77026 16.311 7.49742 15.9097 7.49742C15.5083 7.49742 15.2513 7.77026 15.2513 8.19592V9.1194H15.1791C14.7697 8.12338 13.7659 7.49742 12.5773 7.49742C10.4977 7.49742 9.03658 9.27184 9.03658 11.825C9.03658 14.3867 10.4899 16.1854 12.6097 16.1854C13.8462 16.1854 14.8337 15.4866 15.2914 14.3385H15.3636C15.5164 15.4947 16.4557 16.1854 17.7323 16.1854C19.9725 16.1854 21.3618 13.9931 21.3618 10.9097C21.3622 6.24475 17.9256 3.21803 13.1878 3.21803M4.82937 9.8098C4.54805 9.8098 4.29914 9.61723 4.29914 9.31198V7.64986H2.76589C2.49305 7.64986 2.26807 7.42525 2.26807 7.16013C2.26807 6.88692 2.49268 6.66231 2.76589 6.66231H4.29987V5.00019C4.29987 4.69457 4.54842 4.51046 4.82973 4.51046C5.10258 4.51046 5.35149 4.69457 5.35149 5.00019V6.66231H6.88511C7.15832 6.66231 7.37483 6.88692 7.37483 7.16013C7.37483 7.42525 7.15832 7.64986 6.88511 7.64986H5.35149V9.31198C5.35149 9.61723 5.10221 9.8098 4.82937 9.8098ZM12.8273 14.9085C11.3979 14.9085 10.4745 13.7121 10.4745 11.8173C10.4745 9.93831 11.3898 8.75008 12.8351 8.75008C14.3043 8.75008 15.2358 9.92211 15.2358 11.7768C15.2358 13.6801 14.2888 14.9085 12.8273 14.9085ZM13.2202 20.2965C14.5451 20.2965 15.7896 20.1036 16.6085 19.8628C17.2271 19.6621 17.3313 19.397 17.3313 19.0998C17.3313 18.8031 17.0986 18.57 16.8011 18.57C16.7132 18.57 16.6009 18.5861 16.4642 18.6182C15.4848 18.8833 14.6091 19.0358 13.4772 19.0358C9.41437 19.0358 6.32284 16.7311 6.04963 12.1623C5.65638 12.275 5.23882 12.3391 4.82127 12.3391H4.70086C5.02194 17.5261 8.67536 20.2965 13.2202 20.2965Z" fill="black"/>
</g>
<defs>
<clipPath id="clip0_4218_13571">
<rect width="20.62" height="20.62" fill="white" transform="translate(0.742188 0.898438)"/>
</clipPath>
</defs>
</svg>
