<svg width="40" height="34" viewBox="0 0 40 34" fill="none" xmlns="http://www.w3.org/2000/svg">
<g clip-path="url(#clip0_7955_2789)">
<path d="M6.11008 6.95974L19.1512 4.38164C19.9494 4.22385 20.7775 4.3896 21.4535 4.84241C22.1295 5.29523 22.5979 5.99802 22.7557 6.79619L25.3338 19.8373C25.4915 20.6355 25.3258 21.4636 24.873 22.1396C24.4202 22.8156 23.7174 23.284 22.9192 23.4418L9.87807 26.0199C9.0799 26.1777 8.25175 26.0119 7.57578 25.5591C6.89982 25.1063 6.43142 24.4035 6.27363 23.6053L3.69553 10.5642C3.53774 9.76601 3.70349 8.93786 4.1563 8.26189C4.60912 7.58593 5.31191 7.11753 6.11008 6.95974ZM6.30839 7.96291C5.77628 8.0681 5.30775 8.38036 5.00588 8.83101C4.704 9.28165 4.5935 9.83375 4.6987 10.3659L6.99717 21.9925L9.92296 17.6139C10.2128 17.1801 10.7997 17.0637 11.2331 17.3541L12.6675 18.3149C13.1006 18.6051 13.6869 18.4892 13.977 18.0561L16.9506 13.6171C17.2407 13.184 17.827 13.0681 18.2602 13.3582L23.7356 17.0261L21.7525 6.9945C21.6473 6.46239 21.335 5.99386 20.8844 5.69199C20.4337 5.39011 19.8816 5.27961 19.3495 5.38481L6.30839 7.96291ZM14.2586 19.4806C13.9685 19.9137 13.3822 20.0296 12.9491 19.7394L11.5138 18.778C11.0807 18.4879 10.4944 18.6038 10.2043 19.0369L7.2768 23.407C7.38199 23.9391 7.69425 24.4076 8.1449 24.7095C8.59554 25.0114 9.14764 25.1219 9.67976 25.0167L22.7209 22.4386C23.253 22.3334 23.7215 22.0211 24.0234 21.5705C24.3253 21.1199 24.4358 20.5677 24.3306 20.0356L24.0153 18.4406L18.5415 14.7815C18.1084 14.4919 17.5226 14.608 17.2327 15.0408L14.2586 19.4806ZM9.21294 9.47345C9.87807 9.34195 10.5682 9.48007 11.1315 9.85742C11.6948 10.2348 12.0851 10.8204 12.2166 11.4856C12.3481 12.1507 12.21 12.8408 11.8327 13.4041C11.4553 13.9674 10.8697 14.3578 10.2045 14.4893C9.53937 14.6208 8.84924 14.4826 8.28594 14.1053C7.72264 13.7279 7.3323 13.1423 7.20081 12.4771C7.06932 11.812 7.20744 11.1219 7.58479 10.5586C7.96213 9.99527 8.5478 9.60494 9.21294 9.47345ZM9.41125 10.4766C9.01217 10.5555 8.66077 10.7897 8.43436 11.1277C8.20795 11.4657 8.12508 11.8797 8.20398 12.2788C8.28287 12.6779 8.51707 13.0293 8.85505 13.2557C9.19303 13.4821 9.60711 13.565 10.0062 13.4861C10.4053 13.4072 10.7567 13.173 10.9831 12.835C11.2095 12.497 11.2924 12.083 11.2135 11.6839C11.1346 11.2848 10.9004 10.9334 10.5624 10.707C10.2244 10.4806 9.81033 10.3977 9.41125 10.4766Z" fill="black"/>
<path d="M6.11008 6.95974L19.1512 4.38164C19.9494 4.22385 20.7775 4.3896 21.4535 4.84241C22.1295 5.29523 22.5979 5.99802 22.7557 6.79619L25.3338 19.8373C25.4915 20.6355 25.3258 21.4636 24.873 22.1396C24.4202 22.8156 23.7174 23.284 22.9192 23.4418L9.87807 26.0199C9.0799 26.1777 8.25175 26.0119 7.57578 25.5591C6.89982 25.1063 6.43142 24.4035 6.27363 23.6053L3.69553 10.5642C3.53774 9.76601 3.70349 8.93786 4.1563 8.26189C4.60912 7.58593 5.31191 7.11753 6.11008 6.95974ZM6.30839 7.96291C5.77628 8.0681 5.30775 8.38036 5.00588 8.83101C4.704 9.28165 4.5935 9.83375 4.6987 10.3659L6.99717 21.9925L9.92296 17.6139C10.2128 17.1801 10.7997 17.0637 11.2331 17.3541L12.6675 18.3149C13.1006 18.6051 13.6869 18.4892 13.977 18.0561L16.9506 13.6171C17.2407 13.184 17.827 13.0681 18.2602 13.3582L23.7356 17.0261L21.7525 6.9945C21.6473 6.46239 21.335 5.99386 20.8844 5.69199C20.4337 5.39011 19.8816 5.27961 19.3495 5.38481L6.30839 7.96291ZM14.2586 19.4806C13.9685 19.9137 13.3822 20.0296 12.9491 19.7394L11.5138 18.778C11.0807 18.4879 10.4944 18.6038 10.2043 19.0369L7.2768 23.407C7.38199 23.9391 7.69425 24.4076 8.1449 24.7095C8.59554 25.0114 9.14764 25.1219 9.67976 25.0167L22.7209 22.4386C23.253 22.3334 23.7215 22.0211 24.0234 21.5705C24.3253 21.1199 24.4358 20.5677 24.3306 20.0356L24.0153 18.4406L18.5415 14.7815C18.1084 14.4919 17.5226 14.608 17.2327 15.0408L14.2586 19.4806ZM9.21294 9.47345C9.87807 9.34195 10.5682 9.48007 11.1315 9.85742C11.6948 10.2348 12.0851 10.8204 12.2166 11.4856C12.3481 12.1507 12.21 12.8408 11.8327 13.4041C11.4553 13.9674 10.8697 14.3578 10.2045 14.4893C9.53937 14.6208 8.84924 14.4826 8.28594 14.1053C7.72264 13.7279 7.3323 13.1423 7.20081 12.4771C7.06932 11.812 7.20744 11.1219 7.58479 10.5586C7.96213 9.99527 8.5478 9.60494 9.21294 9.47345ZM9.41125 10.4766C9.01217 10.5555 8.66077 10.7897 8.43436 11.1277C8.20795 11.4657 8.12508 11.8797 8.20398 12.2788C8.28287 12.6779 8.51707 13.0293 8.85505 13.2557C9.19303 13.4821 9.60711 13.565 10.0062 13.4861C10.4053 13.4072 10.7567 13.173 10.9831 12.835C11.2095 12.497 11.2924 12.083 11.2135 11.6839C11.1346 11.2848 10.9004 10.9334 10.5624 10.707C10.2244 10.4806 9.81033 10.3977 9.41125 10.4766Z" fill="black"/>
</g>
<path d="M35.2873 11.27C36.1072 11.3125 36.7381 12.0123 36.6957 12.8322L35.8489 29.1863C35.828 29.58 35.6523 29.9492 35.3596 30.2132C35.0668 30.4771 34.6813 30.6138 34.2877 30.5938L17.9336 29.747C17.5396 29.7266 17.1699 29.5506 16.9058 29.2576C16.6417 28.9647 16.5048 28.5787 16.5252 28.1848L17.3719 11.8317C17.4144 11.0117 18.1142 10.3808 18.9342 10.4233L35.2873 11.27ZM24.8734 23.6309L29.8453 20.676L25.2052 17.2225L24.8734 23.6309Z" fill="white" stroke="black" stroke-width="0.943919"/>
<defs>
<clipPath id="clip0_7955_2789">
<rect width="24.5419" height="24.5419" fill="white" transform="translate(0.499023 4.9502) rotate(-11.1826)"/>
</clipPath>
</defs>
</svg>
