<svg width="81" height="71" viewBox="0 0 81 71" fill="none" xmlns="http://www.w3.org/2000/svg">
<g filter="url(#filter0_dddd_7206_4779)">
<path d="M34.7364 3.58268C38.3041 1.65855 42.6004 1.65856 46.1681 3.58268L66.575 14.5886C70.4713 16.6899 72.9004 20.7598 72.9004 25.1867V45.8133C72.9004 50.2402 70.4713 54.3101 66.575 56.4115L46.1681 67.4173C42.6004 69.3415 38.3041 69.3415 34.7364 67.4173L14.3296 56.4115C10.4332 54.3101 8.00412 50.2402 8.00412 45.8133V25.1867C8.00412 20.7598 10.4332 16.6899 14.3296 14.5885L34.7364 3.58268Z" fill="#E24E1B"/>
<path d="M37.4326 49.6934C37.4326 50.3992 37.713 51.0761 38.2121 51.5752C38.7111 52.0743 39.388 52.3547 40.0938 52.3547C40.7997 52.3547 41.4766 52.0743 41.9756 51.5752C42.4747 51.0761 42.7551 50.3992 42.7551 49.6934V38.1613H54.2872C54.993 38.1613 55.6699 37.881 56.169 37.3819C56.668 36.8828 56.9484 36.2059 56.9484 35.5001C56.9484 34.7943 56.668 34.1174 56.169 33.6183C55.6699 33.1192 54.993 32.8388 54.2872 32.8388H42.7551V21.3068C42.7551 20.601 42.4747 19.9241 41.9756 19.425C41.4766 18.9259 40.7997 18.6455 40.0938 18.6455C39.388 18.6455 38.7111 18.9259 38.2121 19.425C37.713 19.9241 37.4326 20.601 37.4326 21.3068V32.8388H25.9005C25.1947 32.8388 24.5178 33.1192 24.0187 33.6183C23.5196 34.1174 23.2393 34.7943 23.2393 35.5001C23.2393 36.2059 23.5196 36.8828 24.0187 37.3819C24.5178 37.881 25.1947 38.1613 25.9005 38.1613H37.4326V49.6934Z" fill="white"/>
</g>
<defs>
<filter id="filter0_dddd_7206_4779" x="0.00390625" y="0.139648" width="80.8965" height="97.7207" filterUnits="userSpaceOnUse" color-interpolation-filters="sRGB">
<feFlood flood-opacity="0" result="BackgroundImageFix"/>
<feColorMatrix in="SourceAlpha" type="matrix" values="0 0 0 0 0 0 0 0 0 0 0 0 0 0 0 0 0 0 127 0" result="hardAlpha"/>
<feOffset dy="1"/>
<feGaussianBlur stdDeviation="1.5"/>
<feColorMatrix type="matrix" values="0 0 0 0 0 0 0 0 0 0 0 0 0 0 0 0 0 0 0.26 0"/>
<feBlend mode="normal" in2="BackgroundImageFix" result="effect1_dropShadow_7206_4779"/>
<feColorMatrix in="SourceAlpha" type="matrix" values="0 0 0 0 0 0 0 0 0 0 0 0 0 0 0 0 0 0 127 0" result="hardAlpha"/>
<feOffset dy="5"/>
<feGaussianBlur stdDeviation="2.5"/>
<feColorMatrix type="matrix" values="0 0 0 0 0 0 0 0 0 0 0 0 0 0 0 0 0 0 0.22 0"/>
<feBlend mode="normal" in2="effect1_dropShadow_7206_4779" result="effect2_dropShadow_7206_4779"/>
<feColorMatrix in="SourceAlpha" type="matrix" values="0 0 0 0 0 0 0 0 0 0 0 0 0 0 0 0 0 0 127 0" result="hardAlpha"/>
<feOffset dy="12"/>
<feGaussianBlur stdDeviation="3.5"/>
<feColorMatrix type="matrix" values="0 0 0 0 0 0 0 0 0 0 0 0 0 0 0 0 0 0 0.13 0"/>
<feBlend mode="normal" in2="effect2_dropShadow_7206_4779" result="effect3_dropShadow_7206_4779"/>
<feColorMatrix in="SourceAlpha" type="matrix" values="0 0 0 0 0 0 0 0 0 0 0 0 0 0 0 0 0 0 127 0" result="hardAlpha"/>
<feOffset dy="21"/>
<feGaussianBlur stdDeviation="4"/>
<feColorMatrix type="matrix" values="0 0 0 0 0 0 0 0 0 0 0 0 0 0 0 0 0 0 0.04 0"/>
<feBlend mode="normal" in2="effect3_dropShadow_7206_4779" result="effect4_dropShadow_7206_4779"/>
<feBlend mode="normal" in="SourceGraphic" in2="effect4_dropShadow_7206_4779" result="shape"/>
</filter>
</defs>
</svg>
