<svg width="39" height="40" viewBox="0 0 39 40" fill="none" xmlns="http://www.w3.org/2000/svg">
<rect width="39" height="40" rx="19.5" fill="white"/>
<path d="M19.4991 22C18.6658 22 17.9574 21.7083 17.3741 21.125C16.7908 20.5417 16.4991 19.8333 16.4991 19V13C16.4991 12.1667 16.7908 11.4583 17.3741 10.875C17.9574 10.2917 18.6658 10 19.4991 10C20.3324 10 21.0408 10.2917 21.6241 10.875C22.2074 11.4583 22.4991 12.1667 22.4991 13V19C22.4991 19.8333 22.2074 20.5417 21.6241 21.125C21.0408 21.7083 20.3324 22 19.4991 22ZM18.4991 28V25.925C16.9658 25.7083 15.6534 25.0583 14.5621 23.975C13.4708 22.8917 12.8081 21.575 12.5741 20.025C12.5408 19.7417 12.6158 19.5 12.7991 19.3C12.9824 19.1 13.2158 19 13.4991 19C13.7824 19 14.0201 19.096 14.2121 19.288C14.4041 19.48 14.5331 19.7173 14.5991 20C14.8324 21.1667 15.4118 22.125 16.3371 22.875C17.2624 23.625 18.3164 24 19.4991 24C20.6991 24 21.7574 23.621 22.6741 22.863C23.5908 22.105 24.1658 21.1507 24.3991 20C24.4658 19.7167 24.5951 19.4793 24.7871 19.288C24.9791 19.0967 25.2164 19.0007 25.4991 19C25.7818 18.9993 26.0151 19.0993 26.1991 19.3C26.3831 19.5007 26.4581 19.7423 26.4241 20.025C26.1908 21.5417 25.5324 22.85 24.4491 23.95C23.3658 25.05 22.0491 25.7083 20.4991 25.925V28C20.4991 28.2833 20.4031 28.521 20.2111 28.713C20.0191 28.905 19.7818 29.0007 19.4991 29C19.2164 28.9993 18.9791 28.9033 18.7871 28.712C18.5951 28.5207 18.4991 28.2833 18.4991 28Z" fill="#FB5935"/>
</svg>
