<svg width="31" height="31" viewBox="0 0 31 31" fill="none" xmlns="http://www.w3.org/2000/svg">
<path fill-rule="evenodd" clip-rule="evenodd" d="M14.9804 25.8563C14.9804 26.0985 14.7841 26.2949 14.5418 26.2949H6.64663C6.40439 26.2949 6.20801 26.0985 6.20801 25.8563V24.5404C6.20801 24.0559 6.60076 23.6632 7.08525 23.6632H14.1032C14.5877 23.6632 14.9804 24.0559 14.9804 24.5404V25.8563ZM14.1032 23.6632H7.08525V22.7859C7.08525 22.3015 7.47801 21.9087 7.96249 21.9087H13.226C13.7104 21.9087 14.1032 22.3015 14.1032 22.7859V23.6632ZM11.9103 13.136L16.7351 8.31129L19.8056 11.3818L14.9809 16.2065L11.9103 13.136ZM11.9103 13.136L11.4715 12.6977C10.6451 11.873 9.32661 13.1845 10.1556 14.0135L14.1032 17.9611C14.9304 18.7884 16.2489 17.4751 15.4191 16.6452L14.9809 16.2065M19.8056 11.3818L20.2439 11.8204C21.0711 12.6476 22.3896 11.3344 21.5598 10.5045L17.6122 6.55695C16.7858 5.73234 15.4673 7.04382 16.2963 7.87281L16.7351 8.31129M17.3929 13.7933L26.3846 22.7851L17.3929 13.7933Z" fill="white"/>
<path d="M7.08525 23.6632C6.60076 23.6632 6.20801 24.0559 6.20801 24.5404V25.8563C6.20801 26.0985 6.40439 26.2949 6.64663 26.2949H14.5418C14.7841 26.2949 14.9804 26.0985 14.9804 25.8563V24.5404C14.9804 24.0559 14.5877 23.6632 14.1032 23.6632M7.08525 23.6632H14.1032M7.08525 23.6632V22.7859C7.08525 22.3015 7.47801 21.9087 7.96249 21.9087H13.226C13.7104 21.9087 14.1032 22.3015 14.1032 22.7859V23.6632M11.9103 13.136L16.7351 8.31129M11.9103 13.136L14.9809 16.2065M11.9103 13.136L11.4715 12.6977C10.6451 11.873 9.32661 13.1845 10.1556 14.0135L14.1032 17.9611C14.9304 18.7884 16.2489 17.4751 15.4191 16.6452L14.9809 16.2065M16.7351 8.31129L19.8056 11.3818M16.7351 8.31129L16.2963 7.87281C15.4673 7.04382 16.7858 5.73234 17.6122 6.55695L21.5598 10.5045C22.3896 11.3344 21.0711 12.6476 20.2439 11.8204L19.8056 11.3818M19.8056 11.3818L14.9809 16.2065M17.3929 13.7933L26.3846 22.7851" stroke="white" stroke-linecap="round" stroke-linejoin="round"/>
</svg>
