<svg width="39" height="40" viewBox="0 0 39 40" fill="none" xmlns="http://www.w3.org/2000/svg">
<rect width="39" height="40" rx="19.5" fill="white"/>
<path d="M27.5 13H24.33L22.5 11H16.5L14.67 13H11.5C10.4 13 9.5 13.9 9.5 15V27C9.5 27.5304 9.71071 28.0391 10.0858 28.4142C10.4609 28.7893 10.9696 29 11.5 29H27.5C28.61 29 29.5 28.11 29.5 27V15C29.5 14.4696 29.2893 13.9609 28.9142 13.5858C28.5391 13.2107 28.0304 13 27.5 13ZM27.5 27H11.5V15H15.55L17.38 13H21.62L23.5 15H27.5V27ZM12.5 20H14.6C14.7308 19.3563 14.9873 18.7447 15.3547 18.2001C15.7222 17.6556 16.1934 17.1889 16.7414 16.8267C17.2894 16.4645 17.9034 16.2138 18.5483 16.0891C19.1933 15.9644 19.8565 15.9681 20.5 16.1C21.26 16.25 21.93 16.59 22.5 17L21.06 18.45C20.61 18.17 20.08 18 19.5 18C18.24 18 17.1 18.8 16.68 20H18.5L15.5 23L12.5 20ZM24.41 22C23.86 24.71 21.22 26.45 18.5 25.9C17.7788 25.74 17.0981 25.4336 16.5 25L17.94 23.55C18.4 23.83 18.93 24 19.5 24C20.77 24 21.91 23.2 22.33 22H20.5L23.5 19L26.5 22H24.41Z" fill="#FB5935"/>
</svg>
