<svg width="31" height="31" viewBox="0 0 31 31" fill="none" xmlns="http://www.w3.org/2000/svg">
<path d="M14.8307 20.8936H23.164V22.0841H14.8307V20.8936ZM7.77148 21.4888L9.2295 23.0246L10.0688 23.8698L12.4497 21.4888L10.0688 19.1079L9.22355 19.9472L7.77148 21.4888ZM14.8307 14.9412H23.164V16.1317H14.8307V14.9412ZM7.77148 15.3946L9.2295 17.0722L10.0688 17.9174L12.4497 15.5365L10.0688 13.1555L9.22355 13.9948L7.77148 15.3946ZM14.8307 8.98884H23.164V10.1793H14.8307V8.98884ZM7.77148 9.58408L9.2295 11.1198L10.0688 11.965L12.4497 9.58408L10.0688 7.20312L9.22355 8.04241L7.77148 9.58408Z" fill="white"/>
</svg>
