<svg width="33" height="31" viewBox="0 0 33 31" fill="none" xmlns="http://www.w3.org/2000/svg">
<path d="M13.2246 1.99255C15.2689 0.889966 17.7309 0.889968 19.7753 1.99256L26.706 5.73043C28.9387 6.9346 30.3307 9.26679 30.3307 11.8036V18.4855C30.3307 21.0223 28.9387 23.3545 26.706 24.5587L19.7753 28.2965C17.7309 29.3991 15.2689 29.3991 13.2245 28.2965L6.29386 24.5587C4.06111 23.3545 2.66917 21.0223 2.66917 18.4855V11.8036C2.66917 9.2668 4.06112 6.9346 6.29386 5.73043L13.2246 1.99255Z" fill="#48372D"/>
<mask id="mask0_4337_20177" style="mask-type:luminance" maskUnits="userSpaceOnUse" x="10" y="8" width="13" height="14">
<path d="M21.078 14.1642V20.3776C21.078 20.5511 21.0091 20.7174 20.8865 20.8401C20.7638 20.9627 20.5975 21.0316 20.424 21.0316H11.2673C11.0939 21.0316 10.9275 20.9627 10.8048 20.8401C10.6822 20.7174 10.6133 20.5511 10.6133 20.3776V11.2209C10.6133 11.0475 10.6822 10.8811 10.8048 10.7585C10.9275 10.6358 11.0939 10.5669 11.2673 10.5669H17.2728" stroke="white" stroke-width="0.879293" stroke-miterlimit="10" stroke-linecap="round" stroke-linejoin="round"/>
<path d="M12.5754 17.444L14.5376 14.818L15.5187 15.7991L16.6632 14.0005L19.1159 17.444H12.5754Z" fill="#555555" stroke="white" stroke-width="0.879293" stroke-miterlimit="10" stroke-linecap="round" stroke-linejoin="round"/>
<path d="M19.77 10.5661H22.3862M21.0765 9.19092V11.8071" stroke="white" stroke-width="0.879293" stroke-miterlimit="10" stroke-linecap="round" stroke-linejoin="round"/>
</mask>
<g mask="url(#mask0_4337_20177)">
<path d="M8.65137 7.29639H24.3485V22.9935H8.65137V7.29639Z" fill="white"/>
</g>
</svg>
