<svg width="110" height="40" viewBox="0 0 110 40" fill="none" xmlns="http://www.w3.org/2000/svg">
<rect width="110" height="40" rx="8" fill="white"/>
<path d="M13.248 19.148H17.966V20.912H13.248V19.148ZM13.416 23.18H18.75V25H11.162V15.2H18.568V17.02H13.416V23.18ZM24.9786 17.356C25.5759 17.356 26.1079 17.4773 26.5746 17.72C27.0506 17.9533 27.4239 18.3173 27.6946 18.812C27.9652 19.2973 28.1006 19.9227 28.1006 20.688V25H25.9166V21.024C25.9166 20.4173 25.7812 19.9693 25.5106 19.68C25.2492 19.3907 24.8759 19.246 24.3906 19.246C24.0452 19.246 23.7326 19.3207 23.4526 19.47C23.1819 19.61 22.9672 19.8293 22.8086 20.128C22.6592 20.4267 22.5846 20.8093 22.5846 21.276V25H20.4006V17.468H22.4866V19.554L22.0946 18.924C22.3652 18.42 22.7526 18.0327 23.2566 17.762C23.7606 17.4913 24.3346 17.356 24.9786 17.356ZM33.369 25.112C32.6596 25.112 32.0203 24.9533 31.451 24.636C30.8816 24.3093 30.429 23.8567 30.093 23.278C29.7663 22.6993 29.603 22.018 29.603 21.234C29.603 20.4407 29.7663 19.7547 30.093 19.176C30.429 18.5973 30.8816 18.1493 31.451 17.832C32.0203 17.5147 32.6596 17.356 33.369 17.356C34.0036 17.356 34.559 17.496 35.035 17.776C35.511 18.056 35.8796 18.4807 36.141 19.05C36.4023 19.6193 36.533 20.3473 36.533 21.234C36.533 22.1113 36.407 22.8393 36.155 23.418C35.903 23.9873 35.539 24.412 35.063 24.692C34.5963 24.972 34.0316 25.112 33.369 25.112ZM33.747 23.32C34.1016 23.32 34.4236 23.236 34.713 23.068C35.0023 22.9 35.231 22.662 35.399 22.354C35.5763 22.0367 35.665 21.6633 35.665 21.234C35.665 20.7953 35.5763 20.422 35.399 20.114C35.231 19.806 35.0023 19.568 34.713 19.4C34.4236 19.232 34.1016 19.148 33.747 19.148C33.383 19.148 33.0563 19.232 32.767 19.4C32.4776 19.568 32.2443 19.806 32.067 20.114C31.899 20.422 31.815 20.7953 31.815 21.234C31.815 21.6633 31.899 22.0367 32.067 22.354C32.2443 22.662 32.4776 22.9 32.767 23.068C33.0563 23.236 33.383 23.32 33.747 23.32ZM35.721 25V23.46L35.763 21.22L35.623 18.994V14.612H37.807V25H35.721ZM51.132 25.168C50.348 25.168 49.5967 25.0653 48.878 24.86C48.1593 24.6453 47.5807 24.37 47.142 24.034L47.912 22.326C48.332 22.6247 48.8267 22.872 49.396 23.068C49.9747 23.2547 50.558 23.348 51.146 23.348C51.594 23.348 51.9533 23.306 52.224 23.222C52.504 23.1287 52.7093 23.0027 52.84 22.844C52.9707 22.6853 53.036 22.5033 53.036 22.298C53.036 22.0367 52.9333 21.8313 52.728 21.682C52.5227 21.5233 52.252 21.3973 51.916 21.304C51.58 21.2013 51.2067 21.108 50.796 21.024C50.3947 20.9307 49.9887 20.8187 49.578 20.688C49.1767 20.5573 48.808 20.3893 48.472 20.184C48.136 19.9787 47.8607 19.708 47.646 19.372C47.4407 19.036 47.338 18.6067 47.338 18.084C47.338 17.524 47.4873 17.0153 47.786 16.558C48.094 16.0913 48.5513 15.7227 49.158 15.452C49.774 15.172 50.544 15.032 51.468 15.032C52.084 15.032 52.6907 15.1067 53.288 15.256C53.8853 15.396 54.4127 15.6107 54.87 15.9L54.17 17.622C53.7127 17.3607 53.2553 17.1693 52.798 17.048C52.3407 16.9173 51.8927 16.852 51.454 16.852C51.0153 16.852 50.656 16.9033 50.376 17.006C50.096 17.1087 49.8953 17.244 49.774 17.412C49.6527 17.5707 49.592 17.7573 49.592 17.972C49.592 18.224 49.6947 18.4293 49.9 18.588C50.1053 18.7373 50.376 18.8587 50.712 18.952C51.048 19.0453 51.4167 19.1387 51.818 19.232C52.2287 19.3253 52.6347 19.4327 53.036 19.554C53.4467 19.6753 53.82 19.8387 54.156 20.044C54.492 20.2493 54.7627 20.52 54.968 20.856C55.1827 21.192 55.29 21.6167 55.29 22.13C55.29 22.6807 55.136 23.1847 54.828 23.642C54.52 24.0993 54.058 24.468 53.442 24.748C52.8353 25.028 52.0653 25.168 51.132 25.168ZM59.7657 25.112C58.8791 25.112 58.1884 24.888 57.6937 24.44C57.1991 23.9827 56.9517 23.306 56.9517 22.41V15.802H59.1357V22.382C59.1357 22.6993 59.2197 22.9467 59.3877 23.124C59.5557 23.292 59.7844 23.376 60.0737 23.376C60.4191 23.376 60.7131 23.2827 60.9557 23.096L61.5437 24.636C61.3197 24.7947 61.0491 24.916 60.7317 25C60.4237 25.0747 60.1017 25.112 59.7657 25.112ZM55.7897 19.316V17.636H61.0117V19.316H55.7897ZM62.7697 25V17.468H64.8557V19.596L64.5617 18.98C64.7857 18.448 65.1451 18.0467 65.6397 17.776C66.1344 17.496 66.7364 17.356 67.4457 17.356V19.372C67.3524 19.3627 67.2684 19.358 67.1937 19.358C67.1191 19.3487 67.0397 19.344 66.9557 19.344C66.3584 19.344 65.8731 19.5167 65.4997 19.862C65.1357 20.198 64.9537 20.7253 64.9537 21.444V25H62.7697ZM72.4276 25.112C71.569 25.112 70.813 24.944 70.1596 24.608C69.5156 24.272 69.0163 23.8147 68.6616 23.236C68.307 22.648 68.1296 21.9807 68.1296 21.234C68.1296 20.478 68.3023 19.8107 68.6476 19.232C69.0023 18.644 69.483 18.1867 70.0896 17.86C70.6963 17.524 71.3823 17.356 72.1476 17.356C72.885 17.356 73.5476 17.5147 74.1356 17.832C74.733 18.14 75.2043 18.588 75.5496 19.176C75.895 19.7547 76.0676 20.45 76.0676 21.262C76.0676 21.346 76.063 21.444 76.0536 21.556C76.0443 21.6587 76.035 21.7567 76.0256 21.85H69.9076V20.576H74.8776L74.0376 20.954C74.0376 20.562 73.9583 20.2213 73.7996 19.932C73.641 19.6427 73.4216 19.4187 73.1416 19.26C72.8616 19.092 72.535 19.008 72.1616 19.008C71.7883 19.008 71.457 19.092 71.1676 19.26C70.8876 19.4187 70.6683 19.6473 70.5096 19.946C70.351 20.2353 70.2716 20.5807 70.2716 20.982V21.318C70.2716 21.7287 70.3603 22.0927 70.5376 22.41C70.7243 22.718 70.981 22.956 71.3076 23.124C71.6436 23.2827 72.0356 23.362 72.4836 23.362C72.885 23.362 73.235 23.3013 73.5336 23.18C73.8416 23.0587 74.1216 22.8767 74.3736 22.634L75.5356 23.894C75.1903 24.286 74.7563 24.5893 74.2336 24.804C73.711 25.0093 73.109 25.112 72.4276 25.112ZM81.9366 25V23.53L81.7966 23.208V20.576C81.7966 20.1093 81.6519 19.7453 81.3626 19.484C81.0826 19.2227 80.6486 19.092 80.0606 19.092C79.6593 19.092 79.2626 19.1573 78.8706 19.288C78.4879 19.4093 78.1613 19.5773 77.8906 19.792L77.1066 18.266C77.5173 17.9767 78.0119 17.7527 78.5906 17.594C79.1693 17.4353 79.7573 17.356 80.3546 17.356C81.5026 17.356 82.3939 17.6267 83.0286 18.168C83.6633 18.7093 83.9806 19.554 83.9806 20.702V25H81.9366ZM79.6406 25.112C79.0526 25.112 78.5486 25.014 78.1286 24.818C77.7086 24.6127 77.3866 24.3373 77.1626 23.992C76.9386 23.6467 76.8266 23.2593 76.8266 22.83C76.8266 22.382 76.9339 21.99 77.1486 21.654C77.3726 21.318 77.7226 21.0567 78.1986 20.87C78.6746 20.674 79.2953 20.576 80.0606 20.576H82.0626V21.85H80.2986C79.7853 21.85 79.4306 21.934 79.2346 22.102C79.0479 22.27 78.9546 22.48 78.9546 22.732C78.9546 23.012 79.0619 23.236 79.2766 23.404C79.5006 23.5627 79.8039 23.642 80.1866 23.642C80.5506 23.642 80.8773 23.558 81.1666 23.39C81.4559 23.2127 81.6659 22.956 81.7966 22.62L82.1326 23.628C81.9739 24.1133 81.6846 24.482 81.2646 24.734C80.8446 24.986 80.3033 25.112 79.6406 25.112ZM95.6032 17.356C96.2006 17.356 96.7279 17.4773 97.1852 17.72C97.6519 17.9533 98.0159 18.3173 98.2772 18.812C98.5479 19.2973 98.6832 19.9227 98.6832 20.688V25H96.4992V21.024C96.4992 20.4173 96.3732 19.9693 96.1212 19.68C95.8692 19.3907 95.5146 19.246 95.0572 19.246C94.7399 19.246 94.4552 19.3207 94.2032 19.47C93.9512 19.61 93.7552 19.8247 93.6152 20.114C93.4752 20.4033 93.4052 20.772 93.4052 21.22V25H91.2212V21.024C91.2212 20.4173 91.0952 19.9693 90.8432 19.68C90.6006 19.3907 90.2506 19.246 89.7932 19.246C89.4759 19.246 89.1912 19.3207 88.9392 19.47C88.6872 19.61 88.4912 19.8247 88.3512 20.114C88.2112 20.4033 88.1412 20.772 88.1412 21.22V25H85.9572V17.468H88.0432V19.526L87.6512 18.924C87.9126 18.4107 88.2812 18.0233 88.7572 17.762C89.2426 17.4913 89.7932 17.356 90.4092 17.356C91.0999 17.356 91.7019 17.5333 92.2152 17.888C92.7379 18.2333 93.0832 18.7653 93.2512 19.484L92.4812 19.274C92.7332 18.686 93.1346 18.2193 93.6852 17.874C94.2452 17.5287 94.8846 17.356 95.6032 17.356Z" fill="#48372D"/>
</svg>
