<svg width="31" height="31" viewBox="0 0 31 31" fill="none" xmlns="http://www.w3.org/2000/svg">
<path d="M11.1377 20.3525L17.4502 18.54C17.8669 18.415 18.2264 18.2013 18.5289 17.8988C18.8314 17.5963 19.0448 17.2371 19.1689 16.8213L20.9814 10.5088C21.0439 10.2796 20.9869 10.0763 20.8102 9.89879C20.6335 9.72129 20.4302 9.66421 20.2002 9.72754L13.8877 11.54C13.471 11.665 13.1119 11.8788 12.8102 12.1813C12.5085 12.4838 12.2948 12.843 12.1689 13.2588L10.3564 19.5713C10.2939 19.8005 10.3514 20.0038 10.5289 20.1813C10.7064 20.3588 10.9094 20.4159 11.1377 20.3525ZM15.6689 16.915C15.1481 16.915 14.7056 16.733 14.3414 16.3688C13.9773 16.0046 13.7948 15.5617 13.7939 15.04C13.7931 14.5184 13.9756 14.0759 14.3414 13.7125C14.7073 13.3492 15.1498 13.1667 15.6689 13.165C16.1881 13.1634 16.631 13.3459 16.9977 13.7125C17.3644 14.0792 17.5464 14.5217 17.5439 15.04C17.5414 15.5584 17.3594 16.0013 16.9977 16.3688C16.636 16.7363 16.1931 16.9184 15.6689 16.915ZM15.6689 27.54C13.9398 27.54 12.3148 27.2117 10.7939 26.555C9.27311 25.8984 7.9502 25.008 6.8252 23.8838C5.7002 22.7596 4.80978 21.4367 4.15395 19.915C3.49811 18.3934 3.16978 16.7684 3.16895 15.04C3.16811 13.3117 3.49645 11.6867 4.15395 10.165C4.81145 8.64337 5.70186 7.32046 6.8252 6.19629C7.94853 5.07212 9.27145 4.18171 10.7939 3.52504C12.3164 2.86837 13.9414 2.54004 15.6689 2.54004C17.3964 2.54004 19.0214 2.86837 20.5439 3.52504C22.0664 4.18171 23.3894 5.07212 24.5127 6.19629C25.636 7.32046 26.5269 8.64337 27.1852 10.165C27.8435 11.6867 28.1714 13.3117 28.1689 15.04C28.1664 16.7684 27.8381 18.3934 27.1839 19.915C26.5298 21.4367 25.6394 22.7596 24.5127 23.8838C23.386 25.008 22.0631 25.8988 20.5439 26.5563C19.0248 27.2138 17.3998 27.5417 15.6689 27.54Z" fill="white"/>
</svg>
