<svg width="24" height="25" viewBox="0 0 24 25" fill="none" xmlns="http://www.w3.org/2000/svg">
<path d="M20.713 8.5866L20.467 9.1526C20.4286 9.24477 20.3637 9.3235 20.2806 9.37887C20.1975 9.43425 20.0999 9.4638 20 9.4638C19.9001 9.4638 19.8025 9.43425 19.7194 9.37887C19.6363 9.3235 19.5714 9.24477 19.533 9.1526L19.287 8.5866C18.8545 7.58532 18.0624 6.78252 17.067 6.3366L16.308 5.9976C16.2159 5.95524 16.1379 5.88737 16.0832 5.80203C16.0286 5.71669 15.9995 5.61746 15.9995 5.5161C15.9995 5.41474 16.0286 5.31551 16.0832 5.23017C16.1379 5.14483 16.2159 5.07696 16.308 5.0346L17.025 4.7156C18.0454 4.25698 18.8511 3.42448 19.276 2.3896L19.529 1.7786C19.5662 1.68395 19.631 1.6027 19.715 1.54543C19.799 1.48815 19.8983 1.45752 20 1.45752C20.1017 1.45752 20.201 1.48815 20.285 1.54543C20.369 1.6027 20.4338 1.68395 20.471 1.7786L20.724 2.3886C21.1485 3.42368 21.9538 4.25653 22.974 4.7156L23.692 5.0356C23.7838 5.07808 23.8615 5.14594 23.916 5.23117C23.9705 5.31641 23.9994 5.41545 23.9994 5.5166C23.9994 5.61775 23.9705 5.71679 23.916 5.80203C23.8615 5.88726 23.7838 5.95512 23.692 5.9976L22.932 6.3356C21.9368 6.78197 21.1451 7.58513 20.713 8.5866ZM2.992 3.4586H14V5.4586H4V19.4586L13.292 10.1646C13.3849 10.0716 13.4952 9.99787 13.6166 9.94754C13.738 9.89722 13.8681 9.87131 13.9995 9.87131C14.1309 9.87131 14.261 9.89722 14.3824 9.94754C14.5038 9.99787 14.6141 10.0716 14.707 10.1646L20 15.4686V11.4586H22V20.4656C21.9982 20.7282 21.8931 20.9796 21.7075 21.1654C21.5219 21.3512 21.2706 21.4565 21.008 21.4586H2.992C2.72881 21.4583 2.4765 21.3536 2.29049 21.1674C2.10448 20.9812 2 20.7288 2 20.4656V4.4516C2.00183 4.18898 2.1069 3.93762 2.29251 3.75182C2.47813 3.56602 2.72938 3.4607 2.992 3.4586ZM8 11.4586C7.46957 11.4586 6.96086 11.2479 6.58579 10.8728C6.21071 10.4977 6 9.98903 6 9.4586C6 8.92817 6.21071 8.41946 6.58579 8.04439C6.96086 7.66931 7.46957 7.4586 8 7.4586C8.53043 7.4586 9.03914 7.66931 9.41421 8.04439C9.78929 8.41946 10 8.92817 10 9.4586C10 9.98903 9.78929 10.4977 9.41421 10.8728C9.03914 11.2479 8.53043 11.4586 8 11.4586Z" fill="#48372D"/>
</svg>
