<svg width="32" height="31" viewBox="0 0 32 31" fill="none" xmlns="http://www.w3.org/2000/svg">
<path d="M12.7248 2.49255C14.7692 1.38997 17.2311 1.38997 19.2755 2.49256L26.2062 6.23043C28.439 7.4346 29.8309 9.76679 29.8309 12.3036V18.9855C29.8309 21.5223 28.439 23.8545 26.2062 25.0587L19.2755 28.7965C17.2311 29.8991 14.7692 29.8991 12.7248 28.7965L5.7941 25.0587C3.56136 23.8545 2.16941 21.5223 2.16941 18.9855V12.3036C2.16941 9.7668 3.56136 7.4346 5.79411 6.23043L12.7248 2.49255Z" fill="#48372D"/>
<path d="M12.2993 11.0218C12.3601 11.0826 12.4084 11.1547 12.4413 11.2342C12.4743 11.3136 12.4912 11.3987 12.4912 11.4847C12.4912 11.5707 12.4743 11.6558 12.4413 11.7352C12.4084 11.8147 12.3601 11.8868 12.2993 11.9476C11.3176 12.9295 10.766 14.2612 10.766 15.6497C10.766 17.0383 11.3176 18.37 12.2993 19.3519C12.3618 19.4122 12.4116 19.4844 12.4459 19.5643C12.4802 19.6441 12.4983 19.7299 12.499 19.8168C12.4998 19.9037 12.4832 19.9898 12.4503 20.0702C12.4174 20.1506 12.3689 20.2237 12.3074 20.2851C12.246 20.3466 12.1729 20.3951 12.0925 20.428C12.0121 20.4609 11.926 20.4775 11.8391 20.4767C11.7522 20.476 11.6664 20.4579 11.5866 20.4236C11.5067 20.3894 11.4345 20.3395 11.3742 20.277C8.81798 17.7215 8.81798 13.5774 11.3742 11.0218C11.4969 10.8992 11.6633 10.8303 11.8368 10.8303C12.0102 10.8303 12.1766 10.8992 12.2993 11.0218ZM20.6294 11.0218C23.185 13.578 23.185 17.7215 20.6294 20.277C20.5067 20.3998 20.3403 20.4688 20.1667 20.4689C19.9932 20.4689 19.8267 20.4 19.7039 20.2773C19.5812 20.1547 19.5122 19.9882 19.5121 19.8147C19.5121 19.6411 19.5809 19.4747 19.7036 19.3519C20.6854 18.37 21.2369 17.0383 21.2369 15.6497C21.2369 14.2612 20.6854 12.9295 19.7036 11.9476C19.5808 11.8248 19.5119 11.6583 19.5119 11.4847C19.5119 11.3111 19.5808 11.1446 19.7036 11.0218C19.8264 10.899 19.9929 10.8301 20.1665 10.8301C20.3401 10.8301 20.5066 10.899 20.6294 11.0218ZM14.2405 12.9022C14.3632 13.0249 14.4321 13.1912 14.4321 13.3647C14.4321 13.5382 14.3632 13.7046 14.2405 13.8273C14.0023 14.0655 13.8134 14.3482 13.6845 14.6594C13.5556 14.9706 13.4892 15.3041 13.4892 15.6409C13.4892 15.9777 13.5556 16.3113 13.6845 16.6224C13.8134 16.9336 14.0023 17.2164 14.2405 17.4545C14.3013 17.5153 14.3494 17.5875 14.3823 17.6669C14.4152 17.7463 14.4321 17.8314 14.432 17.9173C14.432 18.0033 14.415 18.0883 14.3821 18.1677C14.3492 18.2471 14.301 18.3192 14.2402 18.38C14.1794 18.4407 14.1072 18.4889 14.0278 18.5218C13.9484 18.5546 13.8633 18.5715 13.7774 18.5715C13.6915 18.5715 13.6064 18.5545 13.527 18.5216C13.4476 18.4887 13.3755 18.4404 13.3147 18.3797C12.5884 17.6533 12.1803 16.6681 12.1803 15.6409C12.1803 14.6137 12.5884 13.6285 13.3147 12.9022C13.3755 12.8413 13.4477 12.7931 13.5271 12.7602C13.6065 12.7272 13.6916 12.7103 13.7776 12.7103C13.8636 12.7103 13.9487 12.7272 14.0282 12.7602C14.1076 12.7931 14.1798 12.8413 14.2405 12.9022ZM18.7929 12.9022C19.5192 13.6285 19.9273 14.6137 19.9273 15.6409C19.9273 16.6681 19.5192 17.6533 18.7929 18.3797C18.6695 18.4988 18.5042 18.5648 18.3327 18.5633C18.1611 18.5618 17.997 18.493 17.8757 18.3717C17.7544 18.2504 17.6856 18.0863 17.6841 17.9147C17.6826 17.7432 17.7486 17.5779 17.8678 17.4545C18.1059 17.2164 18.2949 16.9336 18.4238 16.6224C18.5527 16.3113 18.619 15.9777 18.619 15.6409C18.619 15.3041 18.5527 14.9706 18.4238 14.6594C18.2949 14.3482 18.1059 14.0655 17.8678 13.8273C17.7486 13.7039 17.6826 13.5386 17.6841 13.3671C17.6856 13.1955 17.7544 13.0314 17.8757 12.9101C17.997 12.7888 18.1611 12.72 18.3327 12.7185C18.5042 12.717 18.6695 12.783 18.7929 12.9022ZM16.0541 14.7145C16.3144 14.7145 16.564 14.8179 16.7481 15.0019C16.9321 15.186 17.0355 15.4356 17.0355 15.6959C17.0355 15.9562 16.9321 16.2058 16.7481 16.3898C16.564 16.5739 16.3144 16.6773 16.0541 16.6773C15.7939 16.6773 15.5442 16.5739 15.3602 16.3898C15.1761 16.2058 15.0727 15.9562 15.0727 15.6959C15.0727 15.4356 15.1761 15.186 15.3602 15.0019C15.5442 14.8179 15.7939 14.7145 16.0541 14.7145Z" fill="white"/>
</svg>
