<svg width="30" height="30" viewBox="0 0 30 30" fill="none" xmlns="http://www.w3.org/2000/svg">
<circle cx="14.605" cy="14.605" r="14.605" transform="matrix(-1 0 0 1 29.6738 0.0283203)" fill="white"/>
<path d="M8.95645 16.3761C7.65513 15.101 6.33634 13.5726 6.33634 11.5726C6.33634 10.2986 6.84242 9.0768 7.74326 8.17596C8.6441 7.27513 9.86589 6.76904 11.1399 6.76904C12.677 6.76904 13.76 7.20573 15.07 8.51578C16.3801 7.20573 17.4631 6.76904 19.0002 6.76904C20.2742 6.76904 21.496 7.27513 22.3968 8.17596C23.2976 9.0768 23.8037 10.2986 23.8037 11.5726C23.8037 13.5813 22.4937 15.1097 21.1836 16.3761L15.07 22.4897L8.95645 16.3761Z" stroke="#E24E1B" stroke-width="1.88648" stroke-linecap="round" stroke-linejoin="round"/>
</svg>
