<svg width="31" height="31" viewBox="0 0 31 31" fill="none" xmlns="http://www.w3.org/2000/svg">
<path d="M5.57471 23.7871V12.5371C5.57471 12.1413 5.66346 11.7663 5.84096 11.4121C6.01846 11.0579 6.26304 10.7663 6.57471 10.5371L14.0747 4.91211C14.5122 4.57878 15.0122 4.41211 15.5747 4.41211C16.1372 4.41211 16.6372 4.57878 17.0747 4.91211L24.5747 10.5371C24.8872 10.7663 25.1322 11.0579 25.3097 11.4121C25.4872 11.7663 25.5755 12.1413 25.5747 12.5371V23.7871C25.5747 24.4746 25.3297 25.0634 24.8397 25.5534C24.3497 26.0434 23.7614 26.2879 23.0747 26.2871H19.3247C18.9705 26.2871 18.6739 26.1671 18.4347 25.9271C18.1955 25.6871 18.0755 25.3904 18.0747 25.0371V18.7871C18.0747 18.4329 17.9547 18.1363 17.7147 17.8971C17.4747 17.6579 17.178 17.5379 16.8247 17.5371H14.3247C13.9705 17.5371 13.6739 17.6571 13.4347 17.8971C13.1955 18.1371 13.0755 18.4338 13.0747 18.7871V25.0371C13.0747 25.3913 12.9547 25.6884 12.7147 25.9284C12.4747 26.1684 12.178 26.2879 11.8247 26.2871H8.07471C7.38721 26.2871 6.79887 26.0425 6.30971 25.5534C5.82054 25.0642 5.57554 24.4754 5.57471 23.7871Z" fill="white"/>
</svg>
