<svg width="39" height="40" viewBox="0 0 39 40" fill="none" xmlns="http://www.w3.org/2000/svg">
<rect width="39" height="40" rx="19.5" fill="white"/>
<path d="M15.5 22H17.5V20C17.5 19.7167 17.596 19.4793 17.788 19.288C17.98 19.0967 18.2173 19.0007 18.5 19H20.5V21L23.5 18L20.5 15V17H18.5C17.6667 17 16.9583 17.2917 16.375 17.875C15.7917 18.4583 15.5 19.1667 15.5 20V22ZM11.5 26C10.95 26 10.4793 25.8043 10.088 25.413C9.69667 25.0217 9.50067 24.5507 9.5 24V13C9.5 12.45 9.696 11.9793 10.088 11.588C10.48 11.1967 10.9507 11.0007 11.5 11H27.5C28.05 11 28.521 11.196 28.913 11.588C29.305 11.98 29.5007 12.4507 29.5 13V24C29.5 24.55 29.3043 25.021 28.913 25.413C28.5217 25.805 28.0507 26.0007 27.5 26H11.5ZM8.5 29V27H30.5V29H8.5Z" fill="#FB5935"/>
</svg>
