<svg width="19" height="22" viewBox="0 0 19 22" fill="none" xmlns="http://www.w3.org/2000/svg">
<path fill-rule="evenodd" clip-rule="evenodd" d="M3.36523 6.45508C3.36523 4.86378 3.99738 3.33766 5.12259 2.21244C6.24781 1.08722 7.77394 0.455078 9.36523 0.455078C10.9565 0.455078 12.4827 1.08722 13.6079 2.21244C14.7331 3.33766 15.3652 4.86378 15.3652 6.45508H16.3652C16.8957 6.45508 17.4044 6.66579 17.7794 7.04086C18.1545 7.41594 18.3652 7.92464 18.3652 8.45508V18.4551C18.3652 18.9855 18.1545 19.4942 17.7794 19.8693C17.4044 20.2444 16.8957 20.4551 16.3652 20.4551H2.36523C1.8348 20.4551 1.32609 20.2444 0.951021 19.8693C0.575948 19.4942 0.365234 18.9855 0.365234 18.4551V8.45508C0.365234 7.92464 0.575948 7.41594 0.951021 7.04086C1.32609 6.66579 1.8348 6.45508 2.36523 6.45508H3.36523ZM9.36523 2.45508C10.4261 2.45508 11.4435 2.87651 12.1937 3.62665C12.9438 4.3768 13.3652 5.39421 13.3652 6.45508H5.36523C5.36523 5.39421 5.78666 4.3768 6.53681 3.62665C7.28695 2.87651 8.30437 2.45508 9.36523 2.45508ZM11.3652 12.4551C11.3652 12.8061 11.2728 13.151 11.0973 13.455C10.9217 13.7591 10.6693 14.0115 10.3652 14.1871V15.4551C10.3652 15.7203 10.2599 15.9746 10.0723 16.1622C9.8848 16.3497 9.63045 16.4551 9.36523 16.4551C9.10002 16.4551 8.84566 16.3497 8.65813 16.1622C8.47059 15.9746 8.36523 15.7203 8.36523 15.4551V14.1871C7.98398 13.9669 7.68601 13.6271 7.51754 13.2204C7.34908 12.8137 7.31953 12.3627 7.43347 11.9374C7.54742 11.5122 7.7985 11.1364 8.14777 10.8684C8.49704 10.6004 8.92498 10.4551 9.36523 10.4551C9.89567 10.4551 10.4044 10.6658 10.7794 11.0409C11.1545 11.4159 11.3652 11.9246 11.3652 12.4551Z" fill="#E24E1B"/>
</svg>
