<svg width="16" height="18" viewBox="0 0 16 18" fill="none" xmlns="http://www.w3.org/2000/svg">
<path d="M8.07194 0.591797C12.4146 0.591797 15.9349 4.11204 15.9349 8.45475C15.9349 12.7975 12.4146 16.3177 8.07194 16.3177C3.72923 16.3177 0.208984 12.7975 0.208984 8.45475C0.208984 4.11204 3.72923 0.591797 8.07194 0.591797ZM8.07194 2.16439C6.40363 2.16439 4.80365 2.82712 3.62398 4.00679C2.44431 5.18647 1.78158 6.78644 1.78158 8.45475C1.78158 10.1231 2.44431 11.723 3.62398 12.9027C4.80365 14.0824 6.40363 14.7451 8.07194 14.7451C9.74025 14.7451 11.3402 14.0824 12.5199 12.9027C13.6996 11.723 14.3623 10.1231 14.3623 8.45475C14.3623 6.78644 13.6996 5.18647 12.5199 4.00679C11.3402 2.82712 9.74025 2.16439 8.07194 2.16439ZM8.07194 11.5999C8.28048 11.5999 8.48048 11.6828 8.62793 11.8302C8.77539 11.9777 8.85824 12.1777 8.85824 12.3862C8.85824 12.5948 8.77539 12.7948 8.62793 12.9422C8.48048 13.0897 8.28048 13.1725 8.07194 13.1725C7.8634 13.1725 7.6634 13.0897 7.51594 12.9422C7.36849 12.7948 7.28564 12.5948 7.28564 12.3862C7.28564 12.1777 7.36849 11.9777 7.51594 11.8302C7.6634 11.6828 7.8634 11.5999 8.07194 11.5999ZM8.07194 4.13013C8.73422 4.13015 9.37582 4.36079 9.88654 4.78244C10.3973 5.20409 10.7452 5.79042 10.8706 6.44072C10.996 7.09102 10.8911 7.76469 10.5738 8.34602C10.2565 8.92734 9.74664 9.38004 9.13187 9.62633C9.04081 9.65981 8.95873 9.71391 8.89205 9.78438C8.85745 9.82369 8.85194 9.87402 8.85273 9.92591L8.85824 10.0273C8.85801 10.2278 8.78127 10.4205 8.6437 10.5662C8.50612 10.712 8.31809 10.7997 8.11802 10.8114C7.91795 10.8232 7.72095 10.7581 7.56727 10.6294C7.41359 10.5008 7.31482 10.3183 7.29115 10.1193L7.28564 10.0273V9.83077C7.28564 8.92417 8.0169 8.38005 8.54686 8.16697C8.76255 8.08084 8.95071 7.93758 9.09112 7.75258C9.23154 7.56758 9.31891 7.34782 9.34385 7.11691C9.36879 6.886 9.33036 6.65266 9.23269 6.44195C9.13502 6.23123 8.98179 6.0511 8.78946 5.9209C8.59714 5.7907 8.37298 5.71534 8.14106 5.70293C7.90914 5.69052 7.67822 5.74151 7.47309 5.85044C7.26797 5.95937 7.09639 6.12211 6.97678 6.3212C6.85718 6.52029 6.79406 6.7482 6.79421 6.98045C6.79421 7.18899 6.71137 7.38898 6.56391 7.53644C6.41645 7.6839 6.21645 7.76674 6.00791 7.76674C5.79938 7.76674 5.59938 7.6839 5.45192 7.53644C5.30446 7.38898 5.22162 7.18899 5.22162 6.98045C5.22162 6.2245 5.52192 5.49951 6.05646 4.96497C6.591 4.43043 7.31599 4.13013 8.07194 4.13013Z" fill="#E24E1B"/>
</svg>
