<svg width="25" height="25" viewBox="0 0 25 25" fill="none" xmlns="http://www.w3.org/2000/svg">
<path d="M22.3091 3.1709H2.30908V9.1709H3.30908V20.1709C3.30908 20.7013 3.5198 21.21 3.89487 21.5851C4.26994 21.9602 4.77865 22.1709 5.30908 22.1709H19.3091C19.8395 22.1709 20.3482 21.9602 20.7233 21.5851C21.0984 21.21 21.3091 20.7013 21.3091 20.1709V9.1709H22.3091V3.1709ZM4.30908 5.1709H20.3091V7.1709H4.30908V5.1709ZM19.3091 20.1709H5.30908V9.1709H19.3091V20.1709ZM9.30908 11.1709H15.3091C15.3091 11.7013 15.0984 12.21 14.7233 12.5851C14.3482 12.9602 13.8395 13.1709 13.3091 13.1709H11.3091C10.7786 13.1709 10.2699 12.9602 9.89487 12.5851C9.5198 12.21 9.30908 11.7013 9.30908 11.1709Z" fill="white"/>
</svg>
