<svg width="31" height="31" viewBox="0 0 31 31" fill="none" xmlns="http://www.w3.org/2000/svg">
<path d="M15.4678 5.53711C16.7939 5.53711 18.0656 6.06389 19.0033 7.00158C19.941 7.93926 20.4678 9.21103 20.4678 10.5371C20.4678 11.8632 19.941 13.135 19.0033 14.0726C18.0656 15.0103 16.7939 15.5371 15.4678 15.5371C14.1417 15.5371 12.8699 15.0103 11.9322 14.0726C10.9946 13.135 10.4678 11.8632 10.4678 10.5371C10.4678 9.21103 10.9946 7.93926 11.9322 7.00158C12.8699 6.06389 14.1417 5.53711 15.4678 5.53711ZM15.4678 18.0371C20.9928 18.0371 25.4678 20.2746 25.4678 23.0371V25.5371H5.46777V23.0371C5.46777 20.2746 9.94277 18.0371 15.4678 18.0371Z" fill="white"/>
</svg>
