<svg width="25" height="25" viewBox="0 0 25 25" fill="none" xmlns="http://www.w3.org/2000/svg">
<path d="M14.3091 21.1709L12.3091 23.1709L10.3091 21.1709H5.30408C4.77498 21.1709 4.26754 20.9607 3.8934 20.5866C3.51927 20.2124 3.30908 19.705 3.30908 19.1759V5.1659C3.30908 4.0639 4.20208 3.1709 5.30408 3.1709H19.3141C20.4161 3.1709 21.3091 4.0639 21.3091 5.1659V19.1759C21.3091 19.705 21.0989 20.2124 20.7248 20.5866C20.3506 20.9607 19.8432 21.1709 19.3141 21.1709H14.3091ZM19.3091 19.1709V5.1709H5.30908V19.1709H11.1371L12.3091 20.3429L13.4811 19.1709H19.3091ZM8.28108 18.3509C7.66612 18.0844 7.0795 17.7568 6.53008 17.3729C7.16475 16.3903 8.03554 15.5824 9.06287 15.0231C10.0902 14.4637 11.2413 14.1707 12.4111 14.1709C14.8111 14.1709 16.9281 15.3779 18.1891 17.2179C17.6502 17.6165 17.0726 17.9599 16.4651 18.2429C16.0016 17.6013 15.3924 17.0789 14.6876 16.7187C13.9828 16.3585 13.2026 16.1707 12.4111 16.1709C10.6951 16.1709 9.18108 17.0349 8.28108 18.3509ZM12.3091 13.1709C11.8495 13.1709 11.3943 13.0804 10.9697 12.9045C10.5451 12.7286 10.1592 12.4708 9.83421 12.1458C9.5092 11.8208 9.25139 11.4349 9.0755 11.0103C8.89961 10.5857 8.80908 10.1305 8.80908 9.6709C8.80908 9.21127 8.89961 8.75615 9.0755 8.33151C9.25139 7.90687 9.5092 7.52103 9.83421 7.19602C10.1592 6.87102 10.5451 6.61321 10.9697 6.43732C11.3943 6.26143 11.8495 6.1709 12.3091 6.1709C13.2373 6.1709 14.1276 6.53965 14.784 7.19602C15.4403 7.8524 15.8091 8.74264 15.8091 9.6709C15.8091 10.5992 15.4403 11.4894 14.784 12.1458C14.1276 12.8021 13.2373 13.1709 12.3091 13.1709ZM12.3091 11.1709C12.7069 11.1709 13.0884 11.0129 13.3697 10.7316C13.651 10.4503 13.8091 10.0687 13.8091 9.6709C13.8091 9.27307 13.651 8.89154 13.3697 8.61024C13.0884 8.32893 12.7069 8.1709 12.3091 8.1709C11.9113 8.1709 11.5297 8.32893 11.2484 8.61024C10.9671 8.89154 10.8091 9.27307 10.8091 9.6709C10.8091 10.0687 10.9671 10.4503 11.2484 10.7316C11.5297 11.0129 11.9113 11.1709 12.3091 11.1709Z" fill="white"/>
</svg>
