<svg width="31" height="31" viewBox="0 0 31 31" fill="none" xmlns="http://www.w3.org/2000/svg">
<path d="M27.03 12.4121H25.155M5.77998 12.4121H7.65498M16.405 1.78711V3.66211M8.89186 4.89961L10.2169 6.22586M23.9175 4.89961L22.5912 6.22586M17.2244 8.30398C11.7125 13.1152 5.77811 19.1665 3.66998 21.3477C3.17623 21.8584 3.01873 22.6027 3.30311 23.2527C3.45811 23.6059 3.64123 23.9915 3.83061 24.3196C4.01998 24.6477 4.26248 24.999 4.49123 25.3096C4.91123 25.8815 5.63498 26.1165 6.32373 25.9446C9.26686 25.209 17.475 23.0959 24.3975 20.7284" stroke="white" stroke-width="1.5" stroke-linecap="round" stroke-linejoin="round"/>
<path d="M13.9746 11.2827C13.9746 11.2827 15.2815 12.5902 17.4971 16.4277C19.7128 20.2652 20.1915 22.0509 20.1915 22.0509M14.6521 23.8852L15.0234 25.2715C15.1209 25.6355 15.1458 26.0151 15.0965 26.3888C15.0473 26.7624 14.925 27.1226 14.7366 27.449C14.5481 27.7753 14.2972 28.0613 13.9983 28.2907C13.6993 28.5201 13.358 28.6884 12.994 28.7859C12.63 28.8834 12.2504 28.9082 11.8768 28.859C11.5031 28.8098 11.1429 28.6875 10.8165 28.499C10.4902 28.3106 10.2042 28.0597 9.97479 27.7607C9.7454 27.4617 9.57716 27.1205 9.47965 26.7565L9.1709 25.6015M16.7459 7.47461C16.7459 7.47461 18.244 9.11273 21.2247 14.2759C24.2053 19.439 24.8753 21.5552 24.8753 21.5552" stroke="white" stroke-width="1.5" stroke-linecap="round" stroke-linejoin="round"/>
</svg>
