<svg width="13" height="14" viewBox="0 0 13 14" fill="none" xmlns="http://www.w3.org/2000/svg">
<g clip-path="url(#clip0_4068_15497)">
<path d="M8.36396 9.30859L6.09302 7.03766V3.21484H6.90552V6.70047L8.93677 8.73578L8.36396 9.30859Z" fill="black"/>
<path d="M6.49927 1.18359C5.74159 1.1837 4.99164 1.33585 4.29383 1.63102C3.59602 1.9262 2.96453 2.3584 2.43677 2.90203V1.18359H1.62427V4.43359H4.87427V3.62109H2.87552C3.63765 2.77418 4.67235 2.22096 5.79992 2.05752C6.92748 1.89408 8.07667 2.13073 9.04792 2.72638C10.0192 3.32204 10.7511 4.23906 11.1166 5.31819C11.4821 6.39732 11.4581 7.57038 11.0487 8.63365C10.6394 9.69691 9.87053 10.5832 8.87572 11.1386C7.88092 11.694 6.72301 11.8835 5.60308 11.674C4.48315 11.4646 3.47195 10.8695 2.74511 9.99209C2.01827 9.1147 1.6217 8.01044 1.62427 6.87109H0.811768C0.811768 7.99598 1.14533 9.0956 1.77028 10.0309C2.39523 10.9662 3.2835 11.6952 4.32276 12.1257C5.36201 12.5561 6.50558 12.6688 7.60884 12.4493C8.71211 12.2299 9.72553 11.6882 10.5209 10.8928C11.3163 10.0974 11.858 9.08394 12.0775 7.98067C12.2969 6.8774 12.1843 5.73384 11.7538 4.69458C11.3234 3.65533 10.5944 2.76706 9.65907 2.14211C8.72377 1.51716 7.62415 1.18359 6.49927 1.18359Z" fill="black"/>
</g>
<defs>
<clipPath id="clip0_4068_15497">
<rect width="13" height="13" fill="white" transform="translate(-0.000732422 0.371094)"/>
</clipPath>
</defs>
</svg>
