<svg width="31" height="31" viewBox="0 0 31 31" fill="none" xmlns="http://www.w3.org/2000/svg">
<path d="M25.4597 22.6443L20.4724 17.657C21.6732 16.0585 22.3213 14.1129 22.3191 12.1137C22.3191 7.00711 18.1645 2.85254 13.058 2.85254C7.95145 2.85254 3.79688 7.00711 3.79688 12.1137C3.79688 17.2202 7.95145 21.3748 13.058 21.3748C15.0572 21.377 17.0029 20.7288 18.6013 19.5281L23.5886 24.5154C23.8411 24.741 24.1703 24.8615 24.5088 24.852C24.8473 24.8425 25.1693 24.7039 25.4087 24.4644C25.6482 24.225 25.7869 23.903 25.7964 23.5645C25.8058 23.226 25.6854 22.8967 25.4597 22.6443ZM6.44291 12.1137C6.44291 10.8053 6.83088 9.52636 7.55775 8.43851C8.28463 7.35067 9.31776 6.5028 10.5265 6.00212C11.7353 5.50144 13.0653 5.37044 14.3485 5.62568C15.6317 5.88092 16.8104 6.51095 17.7356 7.43609C18.6607 8.36122 19.2907 9.53992 19.546 10.8231C19.8012 12.1063 19.6702 13.4364 19.1695 14.6451C18.6689 15.8539 17.821 16.887 16.7331 17.6139C15.6453 18.3408 14.3663 18.7287 13.058 18.7287C11.3042 18.7266 9.62286 18.029 8.38275 16.7889C7.14263 15.5488 6.44501 13.8674 6.44291 12.1137Z" fill="white"/>
</svg>
