<svg width="24" height="24" viewBox="0 0 24 24" fill="none" xmlns="http://www.w3.org/2000/svg">
<path d="M6.54595 5.00261C6.46583 4.92086 6.3704 4.85571 6.2651 4.81087C6.15979 4.76602 6.04668 4.74237 5.93224 4.74125C5.81779 4.74014 5.70424 4.76159 5.59808 4.80437C5.49192 4.84716 5.39524 4.91044 5.31355 4.99061C4.38976 5.9095 3.65693 7.00212 3.15729 8.20549C2.65765 9.40887 2.40107 10.6992 2.40235 12.0022C2.40099 13.3552 2.67766 14.6941 3.21519 15.9357C3.75272 17.1773 4.53964 18.2953 5.52715 19.2202C5.69337 19.3739 5.91294 19.4567 6.13923 19.4511C6.36553 19.4455 6.58073 19.3519 6.73915 19.1902C7.11835 18.811 7.07155 18.2074 6.70675 17.8582C5.91415 17.1028 5.28342 16.1942 4.85289 15.1875C4.42236 14.1808 4.20103 13.0971 4.20235 12.0022C4.20235 9.78701 5.09155 7.77821 6.53395 6.31661C6.88195 5.96261 6.91795 5.37461 6.54595 5.00261ZM8.65915 7.11821C8.50111 6.95559 8.28505 6.86226 8.05832 6.85866C7.83158 6.85506 7.61267 6.94149 7.44955 7.09901C6.80013 7.73963 6.28467 8.50308 5.9332 9.34487C5.58173 10.1867 5.40128 11.09 5.40235 12.0022C5.40235 14.0326 6.27835 15.8578 7.67395 17.1202C7.8388 17.2656 8.05326 17.3419 8.27287 17.3334C8.49249 17.3249 8.70041 17.2323 8.85355 17.0746C9.24715 16.681 9.17395 16.0618 8.80435 15.7138C8.29789 15.2374 7.89444 14.6623 7.61891 14.0239C7.34337 13.3856 7.2016 12.6975 7.20235 12.0022C7.20235 10.6222 7.75075 9.36941 8.64235 8.45021C8.98555 8.09741 9.04195 7.49981 8.65915 7.11821ZM15.3455 7.11701C15.5036 6.95439 15.7196 6.86106 15.9464 6.85746C16.1731 6.85386 16.392 6.94029 16.5551 7.09781C17.2047 7.73857 17.7203 8.50221 18.0717 9.34423C18.4232 10.1862 18.6036 11.0898 18.6023 12.0022C18.6023 14.0326 17.7263 15.8578 16.3307 17.1202C16.1659 17.2656 15.9514 17.3419 15.7318 17.3334C15.5122 17.3249 15.3043 17.2323 15.1511 17.0746C14.7575 16.681 14.8307 16.0618 15.2003 15.7138C15.7068 15.2374 16.1103 14.6623 16.3858 14.0239C16.6613 13.3856 16.8031 12.6975 16.8023 12.0022C16.8023 10.6222 16.2539 9.36941 15.3623 8.45021C15.0191 8.09741 14.9627 7.49861 15.3455 7.11701ZM17.4587 5.00261C17.5389 4.92086 17.6343 4.85571 17.7396 4.81087C17.8449 4.76602 17.958 4.74237 18.0725 4.74125C18.1869 4.74014 18.3005 4.76159 18.4066 4.80437C18.5128 4.84716 18.6095 4.91044 18.6911 4.99061C19.6149 5.9095 20.3478 7.00212 20.8474 8.20549C21.347 9.40887 21.6036 10.6992 21.6023 12.0022C21.6037 13.3552 21.327 14.6941 20.7895 15.9357C20.252 17.1773 19.4651 18.2953 18.4775 19.2202C18.3113 19.3739 18.0918 19.4567 17.8655 19.4511C17.6392 19.4455 17.424 19.3519 17.2655 19.1902C16.8863 18.811 16.9331 18.2074 17.2991 17.8582C18.0915 17.1027 18.722 16.1941 19.1524 15.1874C19.5827 14.1807 19.8038 13.097 19.8023 12.0022C19.8023 9.78701 18.9131 7.77821 17.4707 6.31661C17.1227 5.96261 17.0867 5.37461 17.4587 5.00261ZM12.0023 10.2022C11.525 10.2022 11.0671 10.3918 10.7296 10.7294C10.392 11.067 10.2023 11.5248 10.2023 12.0022C10.2023 12.4796 10.392 12.9374 10.7296 13.275C11.0671 13.6126 11.525 13.8022 12.0023 13.8022C12.4797 13.8022 12.9376 13.6126 13.2751 13.275C13.6127 12.9374 13.8023 12.4796 13.8023 12.0022C13.8023 11.5248 13.6127 11.067 13.2751 10.7294C12.9376 10.3918 12.4797 10.2022 12.0023 10.2022Z" fill="#48372D"/>
</svg>
