<svg width="30" height="26" viewBox="0 0 30 26" fill="none" xmlns="http://www.w3.org/2000/svg">
<rect width="29.8871" height="25.6289" rx="12.8145" fill="#6F4D34"/>
<path d="M17.5679 10.1898L14.0661 13.6916L12.3152 11.9407M10.6729 18.6825L9.33868 19.7506C8.60942 20.3328 8.24524 20.6243 7.93883 20.6252C7.8071 20.6253 7.67705 20.5956 7.55836 20.5385C7.43968 20.4813 7.33541 20.3981 7.25335 20.2951C7.0625 20.0561 7.0625 19.5895 7.0625 18.6563V8.61482C7.0625 7.63432 7.0625 7.14319 7.25335 6.76762C7.42144 6.43845 7.68845 6.17144 8.01849 6.00335C8.39319 5.8125 8.88344 5.8125 9.86395 5.8125H20.0192C20.9997 5.8125 21.49 5.8125 21.8646 6.00335C22.1941 6.17121 22.4619 6.43905 22.6298 6.76849C22.8206 7.14231 22.8206 7.63257 22.8206 8.61132V15.2709C22.8206 16.2488 22.8206 16.7381 22.6298 17.1128C22.4619 17.4423 22.1941 17.7101 21.8646 17.878C21.4908 18.0688 21.0015 18.0688 20.0227 18.0688H12.4229C12.0587 18.0688 11.8757 18.0688 11.7015 18.1039C11.5472 18.1359 11.3979 18.1886 11.2577 18.2606C11.1001 18.3411 10.9583 18.454 10.6755 18.6808L10.6729 18.6825Z" stroke="white" stroke-width="1.7627" stroke-linecap="round" stroke-linejoin="round"/>
</svg>
