<svg width="30" height="26" viewBox="0 0 30 26" fill="none" xmlns="http://www.w3.org/2000/svg">
<rect width="29.8871" height="25.6289" rx="12.8145" fill="#6F4D34"/>
<path d="M21.5215 12.5703V15.9036C21.5215 18.6536 21.5215 20.0286 20.6787 20.8828C19.836 21.737 18.4793 21.737 15.766 21.737H14.1215C11.4082 21.737 10.0515 21.737 9.20875 20.8828C8.36597 20.0286 8.36597 18.6536 8.36597 15.9036V12.5703M14.9437 8.28448C14.9437 7.43203 15.2779 6.61449 15.8726 6.01172C16.4673 5.40895 17.274 5.07031 18.1151 5.07031H18.4086C19.2193 5.07031 19.8771 5.73615 19.8771 6.55865C19.8771 7.26898 19.5987 7.95023 19.1031 8.45251C18.6075 8.9548 17.9353 9.23698 17.2345 9.23698H14.9437M14.9437 8.28448V9.23698M14.9437 8.28448C14.9437 7.43203 14.6096 6.61449 14.0149 6.01172C13.4202 5.40895 12.6135 5.07031 11.7724 5.07031H11.4789C10.6682 5.07031 10.0104 5.73615 10.0104 6.55865C10.0104 6.91037 10.0788 7.25865 10.2116 7.5836C10.3444 7.90855 10.539 8.20381 10.7844 8.45251C11.0298 8.70122 11.3211 8.8985 11.6418 9.0331C11.9624 9.1677 12.306 9.23698 12.653 9.23698H14.9437M14.9437 12.5703V21.737M22.3438 10.9036C22.3438 10.2803 22.3438 9.96864 22.1785 9.73698C22.0613 9.5778 21.9059 9.4516 21.7271 9.37031C21.4409 9.23698 21.057 9.23698 20.2882 9.23698H9.59931C8.83053 9.23698 8.44655 9.23698 8.16042 9.37031C7.97295 9.45864 7.81755 9.58531 7.70902 9.73698C7.54375 9.96864 7.54375 10.2803 7.54375 10.9036C7.54375 11.527 7.54375 11.8378 7.70902 12.0703C7.82623 12.2295 7.98161 12.3557 8.16042 12.437C8.44655 12.5703 8.83053 12.5703 9.59931 12.5703H20.2882C21.057 12.5703 21.4409 12.5703 21.7271 12.437C21.9059 12.3557 22.0613 12.2295 22.1785 12.0703C22.3438 11.8378 22.3438 11.527 22.3438 10.9036Z" stroke="white" stroke-width="1.5" stroke-linecap="round" stroke-linejoin="round"/>
</svg>
