<svg width="30" height="27" viewBox="0 0 30 27" fill="none" xmlns="http://www.w3.org/2000/svg">
<rect width="29.8871" height="25.6289" rx="12.8145" fill="#6F4D34"/>
<path d="M15.0234 21.8444C14.6568 21.8444 14.3028 21.7825 13.9614 21.6587C13.6201 21.5349 13.3074 21.3484 13.0234 21.0995L6.72344 15.5617C6.50678 15.3796 6.33578 15.1561 6.21044 14.8913C6.08511 14.6264 6.02278 14.3532 6.02344 14.0718V12.0852C6.02344 11.8037 6.07778 11.5306 6.18644 11.2657C6.29511 11.0008 6.45744 10.7773 6.67344 10.5952L12.9734 4.75949C13.2568 4.49461 13.5734 4.29595 13.9234 4.16351C14.2734 4.03106 14.6401 3.96484 15.0234 3.96484C15.4068 3.96484 15.7734 4.03106 16.1234 4.16351C16.4734 4.29595 16.7901 4.49461 17.0734 4.75949L23.3734 10.5952C23.5901 10.7773 23.7528 11.0008 23.8614 11.2657C23.9701 11.5306 24.0241 11.8037 24.0234 12.0852V14.0718C24.0234 14.3532 23.9611 14.6264 23.8364 14.8913C23.7118 15.1561 23.5408 15.3796 23.3234 15.5617L17.0234 21.0995C16.7401 21.3478 16.4278 21.5342 16.0864 21.6587C15.7451 21.7832 15.3908 21.8451 15.0234 21.8444ZM12.0234 13.153C12.3734 13.153 12.6694 13.0328 12.9114 12.7924C13.1534 12.552 13.2741 12.2583 13.2734 11.9113C13.2728 11.5643 13.1518 11.2703 12.9104 11.0293C12.6691 10.7882 12.3734 10.6684 12.0234 10.6697C11.6734 10.671 11.3774 10.7912 11.1354 11.0303C10.8934 11.2693 10.7728 11.563 10.7734 11.9113C10.7741 12.2597 10.8951 12.5537 11.1364 12.7934C11.3778 13.0331 11.6734 13.153 12.0234 13.153ZM13.2734 14.4939C13.9901 14.8416 14.7444 14.9535 15.5364 14.8297C16.3284 14.7058 17.0241 14.3787 17.6234 13.8483C18.1901 13.3682 18.5611 12.7639 18.7364 12.0355C18.9118 11.3071 18.8241 10.62 18.4734 9.97438L13.2734 14.4939ZM15.0234 10.173C15.3734 10.173 15.6694 10.0528 15.9114 9.81247C16.1534 9.57208 16.2741 9.2784 16.2734 8.9314C16.2728 8.5844 16.1518 8.29038 15.9104 8.04934C15.6691 7.80829 15.3734 7.68844 15.0234 7.68976C14.6734 7.69108 14.3774 7.81127 14.1354 8.05033C13.8934 8.28939 13.7728 8.58308 13.7734 8.9314C13.7741 9.27972 13.8951 9.57374 14.1364 9.81346C14.3778 10.0532 14.6734 10.173 15.0234 10.173Z" fill="white"/>
</svg>
