<svg width="30" height="26" viewBox="0 0 30 26" fill="none" xmlns="http://www.w3.org/2000/svg">
<rect width="29.8871" height="25.6289" rx="12.8145" fill="#6F4D34"/>
<g clip-path="url(#clip0_8125_5483)">
<path d="M8.3955 9.55495C8.3955 8.53339 8.80132 7.55366 9.52367 6.8313C10.246 6.10894 11.2258 5.70313 12.2473 5.70312C13.2689 5.70312 14.2486 6.10894 14.971 6.8313C15.6933 7.55366 16.0992 8.53339 16.0992 9.55495C16.0992 10.5765 15.6933 11.5562 14.971 12.2786C14.2486 13.001 13.2689 13.4068 12.2473 13.4068C11.2258 13.4068 10.246 13.001 9.52367 12.2786C8.80132 11.5562 8.3955 10.5765 8.3955 9.55495ZM9.55105 14.9475C8.52948 14.9475 7.54975 15.3533 6.82739 16.0757C6.10504 16.798 5.69922 17.7778 5.69922 18.7993L5.69922 20.3401H18.7954V18.7993C18.7954 17.7778 18.3896 16.798 17.6673 16.0757C16.9449 15.3533 15.9652 14.9475 14.9436 14.9475H9.55105ZM24.188 20.3401H20.3362V18.7993C20.3362 17.2902 19.7168 15.9259 18.7184 14.9475H20.3362C20.842 14.9475 21.3429 15.0471 21.8102 15.2407C22.2775 15.4343 22.7021 15.718 23.0598 16.0757C23.4175 16.4334 23.7012 16.858 23.8948 17.3253C24.0884 17.7926 24.188 18.2935 24.188 18.7993V20.3401ZM17.6399 13.4068C17.1696 13.407 16.7033 13.3211 16.264 13.1533C17.152 12.1654 17.6422 10.8833 17.6399 9.55495C17.6419 8.2265 17.1515 6.94444 16.2632 5.95658C16.791 5.75505 17.3566 5.67206 17.92 5.71351C18.4834 5.75495 19.0307 5.91981 19.5233 6.19639C20.0159 6.47298 20.4415 6.85452 20.7702 7.31398C21.0989 7.77344 21.3224 8.29956 21.4251 8.85506C21.5277 9.41057 21.5069 9.98185 21.3642 10.5284C21.2214 11.075 20.9602 11.5835 20.599 12.0178C20.2378 12.4521 19.7854 12.8017 19.2741 13.0418C18.7627 13.2818 18.2048 13.4064 17.6399 13.4068Z" fill="white"/>
</g>
<defs>
<clipPath id="clip0_8125_5483">
<rect width="18.4888" height="18.4888" fill="white" transform="translate(5.69922 4.16016)"/>
</clipPath>
</defs>
</svg>
