<svg width="198" height="138" viewBox="0 0 198 138" fill="none" xmlns="http://www.w3.org/2000/svg">
<path d="M44.229 102.829C43.037 102.829 42.105 102.497 41.433 101.833C40.761 101.169 40.425 100.221 40.425 98.9886V94.2846H42.369V98.9166C42.369 99.7166 42.533 100.293 42.861 100.645C43.189 100.997 43.649 101.173 44.241 101.173C44.833 101.173 45.293 100.997 45.621 100.645C45.949 100.293 46.113 99.7166 46.113 98.9166V94.2846H48.033V98.9886C48.033 100.221 47.697 101.169 47.025 101.833C46.353 102.497 45.421 102.829 44.229 102.829ZM53.758 102.781C53.214 102.781 52.738 102.661 52.33 102.421C51.922 102.181 51.602 101.817 51.37 101.329C51.146 100.833 51.034 100.209 51.034 99.4566C51.034 98.6966 51.142 98.0726 51.358 97.5846C51.574 97.0966 51.886 96.7326 52.294 96.4926C52.702 96.2526 53.19 96.1326 53.758 96.1326C54.366 96.1326 54.91 96.2726 55.39 96.5526C55.878 96.8246 56.262 97.2086 56.542 97.7046C56.83 98.2006 56.974 98.7846 56.974 99.4566C56.974 100.137 56.83 100.725 56.542 101.221C56.262 101.717 55.878 102.101 55.39 102.373C54.91 102.645 54.366 102.781 53.758 102.781ZM49.942 105.013V96.2286H51.73V97.5486L51.694 99.4686L51.814 101.377V105.013H49.942ZM53.434 101.245C53.746 101.245 54.022 101.173 54.262 101.029C54.51 100.885 54.706 100.681 54.85 100.417C55.002 100.145 55.078 99.8246 55.078 99.4566C55.078 99.0806 55.002 98.7606 54.85 98.4966C54.706 98.2326 54.51 98.0286 54.262 97.8846C54.022 97.7406 53.746 97.6686 53.434 97.6686C53.122 97.6686 52.842 97.7406 52.594 97.8846C52.346 98.0286 52.15 98.2326 52.006 98.4966C51.862 98.7606 51.79 99.0806 51.79 99.4566C51.79 99.8246 51.862 100.145 52.006 100.417C52.15 100.681 52.346 100.885 52.594 101.029C52.842 101.173 53.122 101.245 53.434 101.245ZM58.3472 102.685V93.7806H60.2192V102.685H58.3472ZM65.1485 102.781C64.4605 102.781 63.8485 102.637 63.3125 102.349C62.7845 102.061 62.3645 101.669 62.0525 101.173C61.7485 100.669 61.5965 100.097 61.5965 99.4566C61.5965 98.8086 61.7485 98.2366 62.0525 97.7406C62.3645 97.2366 62.7845 96.8446 63.3125 96.5646C63.8485 96.2766 64.4605 96.1326 65.1485 96.1326C65.8285 96.1326 66.4365 96.2766 66.9725 96.5646C67.5085 96.8446 67.9285 97.2326 68.2325 97.7286C68.5365 98.2246 68.6885 98.8006 68.6885 99.4566C68.6885 100.097 68.5365 100.669 68.2325 101.173C67.9285 101.669 67.5085 102.061 66.9725 102.349C66.4365 102.637 65.8285 102.781 65.1485 102.781ZM65.1485 101.245C65.4605 101.245 65.7405 101.173 65.9885 101.029C66.2365 100.885 66.4325 100.681 66.5765 100.417C66.7205 100.145 66.7925 99.8246 66.7925 99.4566C66.7925 99.0806 66.7205 98.7606 66.5765 98.4966C66.4325 98.2326 66.2365 98.0286 65.9885 97.8846C65.7405 97.7406 65.4605 97.6686 65.1485 97.6686C64.8365 97.6686 64.5565 97.7406 64.3085 97.8846C64.0605 98.0286 63.8605 98.2326 63.7085 98.4966C63.5645 98.7606 63.4925 99.0806 63.4925 99.4566C63.4925 99.8246 63.5645 100.145 63.7085 100.417C63.8605 100.681 64.0605 100.885 64.3085 101.029C64.5565 101.173 64.8365 101.245 65.1485 101.245ZM73.9144 102.685V101.425L73.7944 101.149V98.8926C73.7944 98.4926 73.6704 98.1806 73.4224 97.9566C73.1824 97.7326 72.8104 97.6206 72.3064 97.6206C71.9624 97.6206 71.6224 97.6766 71.2864 97.7886C70.9584 97.8926 70.6784 98.0366 70.4464 98.2206L69.7744 96.9126C70.1264 96.6646 70.5504 96.4726 71.0464 96.3366C71.5424 96.2006 72.0464 96.1326 72.5584 96.1326C73.5424 96.1326 74.3064 96.3646 74.8504 96.8286C75.3944 97.2926 75.6664 98.0166 75.6664 99.0006V102.685H73.9144ZM71.9464 102.781C71.4424 102.781 71.0104 102.697 70.6504 102.529C70.2904 102.353 70.0144 102.117 69.8224 101.821C69.6304 101.525 69.5344 101.193 69.5344 100.825C69.5344 100.441 69.6264 100.105 69.8104 99.8166C70.0024 99.5286 70.3024 99.3046 70.7104 99.1446C71.1184 98.9766 71.6504 98.8926 72.3064 98.8926H74.0224V99.9846H72.5104C72.0704 99.9846 71.7664 100.057 71.5984 100.201C71.4384 100.345 71.3584 100.525 71.3584 100.741C71.3584 100.981 71.4504 101.173 71.6344 101.317C71.8264 101.453 72.0864 101.521 72.4144 101.521C72.7264 101.521 73.0064 101.449 73.2544 101.305C73.5024 101.153 73.6824 100.933 73.7944 100.645L74.0824 101.509C73.9464 101.925 73.6984 102.241 73.3384 102.457C72.9784 102.673 72.5144 102.781 71.9464 102.781ZM80.2995 102.781C79.6915 102.781 79.1435 102.645 78.6555 102.373C78.1675 102.093 77.7795 101.705 77.4915 101.209C77.2115 100.713 77.0715 100.129 77.0715 99.4566C77.0715 98.7766 77.2115 98.1886 77.4915 97.6926C77.7795 97.1966 78.1675 96.8126 78.6555 96.5406C79.1435 96.2686 79.6915 96.1326 80.2995 96.1326C80.8435 96.1326 81.3195 96.2526 81.7275 96.4926C82.1355 96.7326 82.4515 97.0966 82.6755 97.5846C82.8995 98.0726 83.0115 98.6966 83.0115 99.4566C83.0115 100.209 82.9035 100.833 82.6875 101.329C82.4715 101.817 82.1595 102.181 81.7515 102.421C81.3515 102.661 80.8675 102.781 80.2995 102.781ZM80.6235 101.245C80.9275 101.245 81.2035 101.173 81.4515 101.029C81.6995 100.885 81.8955 100.681 82.0395 100.417C82.1915 100.145 82.2675 99.8246 82.2675 99.4566C82.2675 99.0806 82.1915 98.7606 82.0395 98.4966C81.8955 98.2326 81.6995 98.0286 81.4515 97.8846C81.2035 97.7406 80.9275 97.6686 80.6235 97.6686C80.3115 97.6686 80.0315 97.7406 79.7835 97.8846C79.5355 98.0286 79.3355 98.2326 79.1835 98.4966C79.0395 98.7606 78.9675 99.0806 78.9675 99.4566C78.9675 99.8246 79.0395 100.145 79.1835 100.417C79.3355 100.681 79.5355 100.885 79.7835 101.029C80.0315 101.173 80.3115 101.245 80.6235 101.245ZM82.3155 102.685V101.365L82.3515 99.4446L82.2315 97.5366V93.7806H84.1035V102.685H82.3155ZM92.1145 102.781C91.3545 102.781 90.7625 102.589 90.3385 102.205C89.9145 101.813 89.7025 101.233 89.7025 100.465V94.8006H91.5745V100.441C91.5745 100.713 91.6465 100.925 91.7905 101.077C91.9345 101.221 92.1305 101.293 92.3785 101.293C92.6745 101.293 92.9265 101.213 93.1345 101.053L93.6385 102.373C93.4465 102.509 93.2145 102.613 92.9425 102.685C92.6785 102.749 92.4025 102.781 92.1145 102.781ZM88.7065 97.8126V96.3726H93.1825V97.8126H88.7065ZM98.7334 96.1326C99.2454 96.1326 99.7014 96.2366 100.101 96.4446C100.509 96.6446 100.829 96.9566 101.061 97.3806C101.293 97.7966 101.409 98.3326 101.409 98.9886V102.685H99.5374V99.2766C99.5374 98.7566 99.4214 98.3726 99.1894 98.1246C98.9654 97.8766 98.6454 97.7526 98.2294 97.7526C97.9334 97.7526 97.6654 97.8166 97.4254 97.9446C97.1934 98.0646 97.0094 98.2526 96.8734 98.5086C96.7454 98.7646 96.6814 99.0926 96.6814 99.4926V102.685H94.8094V93.7806H96.6814V98.0166L96.2614 97.4766C96.4934 97.0446 96.8254 96.7126 97.2574 96.4806C97.6894 96.2486 98.1814 96.1326 98.7334 96.1326ZM105.95 102.781C105.414 102.781 104.934 102.677 104.51 102.469C104.094 102.261 103.77 101.945 103.538 101.521C103.306 101.089 103.19 100.541 103.19 99.8766V96.2286H105.062V99.6006C105.062 100.137 105.174 100.533 105.398 100.789C105.63 101.037 105.954 101.161 106.37 101.161C106.658 101.161 106.914 101.101 107.138 100.981C107.362 100.853 107.538 100.661 107.666 100.405C107.794 100.141 107.858 99.8126 107.858 99.4206V96.2286H109.73V102.685H107.954V100.909L108.278 101.425C108.062 101.873 107.742 102.213 107.318 102.445C106.902 102.669 106.446 102.781 105.95 102.781ZM119.853 96.1326C120.365 96.1326 120.817 96.2366 121.209 96.4446C121.609 96.6446 121.921 96.9566 122.145 97.3806C122.377 97.7966 122.493 98.3326 122.493 98.9886V102.685H120.621V99.2766C120.621 98.7566 120.513 98.3726 120.297 98.1246C120.081 97.8766 119.777 97.7526 119.385 97.7526C119.113 97.7526 118.869 97.8166 118.653 97.9446C118.437 98.0646 118.269 98.2486 118.149 98.4966C118.029 98.7446 117.969 99.0606 117.969 99.4446V102.685H116.097V99.2766C116.097 98.7566 115.989 98.3726 115.773 98.1246C115.565 97.8766 115.265 97.7526 114.873 97.7526C114.601 97.7526 114.357 97.8166 114.141 97.9446C113.925 98.0646 113.757 98.2486 113.637 98.4966C113.517 98.7446 113.457 99.0606 113.457 99.4446V102.685H111.585V96.2286H113.373V97.9926L113.037 97.4766C113.261 97.0366 113.577 96.7046 113.985 96.4806C114.401 96.2486 114.873 96.1326 115.401 96.1326C115.993 96.1326 116.509 96.2846 116.949 96.5886C117.397 96.8846 117.693 97.3406 117.837 97.9566L117.177 97.7766C117.393 97.2726 117.737 96.8726 118.209 96.5766C118.689 96.2806 119.237 96.1326 119.853 96.1326ZM128.106 102.781C127.538 102.781 127.05 102.661 126.642 102.421C126.234 102.181 125.922 101.817 125.706 101.329C125.49 100.833 125.382 100.209 125.382 99.4566C125.382 98.6966 125.494 98.0726 125.718 97.5846C125.95 97.0966 126.27 96.7326 126.678 96.4926C127.086 96.2526 127.562 96.1326 128.106 96.1326C128.714 96.1326 129.258 96.2686 129.738 96.5406C130.226 96.8126 130.61 97.1966 130.89 97.6926C131.178 98.1886 131.322 98.7766 131.322 99.4566C131.322 100.129 131.178 100.713 130.89 101.209C130.61 101.705 130.226 102.093 129.738 102.373C129.258 102.645 128.714 102.781 128.106 102.781ZM124.29 102.685V93.7806H126.162V97.5366L126.042 99.4446L126.078 101.365V102.685H124.29ZM127.782 101.245C128.094 101.245 128.37 101.173 128.61 101.029C128.858 100.885 129.054 100.681 129.198 100.417C129.35 100.145 129.426 99.8246 129.426 99.4566C129.426 99.0806 129.35 98.7606 129.198 98.4966C129.054 98.2326 128.858 98.0286 128.61 97.8846C128.37 97.7406 128.094 97.6686 127.782 97.6686C127.47 97.6686 127.19 97.7406 126.942 97.8846C126.694 98.0286 126.498 98.2326 126.354 98.4966C126.21 98.7606 126.138 99.0806 126.138 99.4566C126.138 99.8246 126.21 100.145 126.354 100.417C126.498 100.681 126.694 100.885 126.942 101.029C127.19 101.173 127.47 101.245 127.782 101.245ZM136.62 96.1326C137.132 96.1326 137.588 96.2366 137.988 96.4446C138.396 96.6446 138.716 96.9566 138.948 97.3806C139.18 97.7966 139.296 98.3326 139.296 98.9886V102.685H137.424V99.2766C137.424 98.7566 137.308 98.3726 137.076 98.1246C136.852 97.8766 136.532 97.7526 136.116 97.7526C135.82 97.7526 135.552 97.8166 135.312 97.9446C135.08 98.0646 134.896 98.2526 134.76 98.5086C134.632 98.7646 134.568 99.0926 134.568 99.4926V102.685H132.696V96.2286H134.484V98.0166L134.148 97.4766C134.38 97.0446 134.712 96.7126 135.144 96.4806C135.576 96.2486 136.068 96.1326 136.62 96.1326ZM145.072 102.685V101.425L144.952 101.149V98.8926C144.952 98.4926 144.828 98.1806 144.58 97.9566C144.34 97.7326 143.968 97.6206 143.464 97.6206C143.12 97.6206 142.78 97.6766 142.444 97.7886C142.116 97.8926 141.836 98.0366 141.604 98.2206L140.932 96.9126C141.284 96.6646 141.708 96.4726 142.204 96.3366C142.7 96.2006 143.204 96.1326 143.716 96.1326C144.7 96.1326 145.464 96.3646 146.008 96.8286C146.552 97.2926 146.824 98.0166 146.824 99.0006V102.685H145.072ZM143.104 102.781C142.6 102.781 142.168 102.697 141.808 102.529C141.448 102.353 141.172 102.117 140.98 101.821C140.788 101.525 140.692 101.193 140.692 100.825C140.692 100.441 140.784 100.105 140.968 99.8166C141.16 99.5286 141.46 99.3046 141.868 99.1446C142.276 98.9766 142.808 98.8926 143.464 98.8926H145.18V99.9846H143.668C143.228 99.9846 142.924 100.057 142.756 100.201C142.596 100.345 142.516 100.525 142.516 100.741C142.516 100.981 142.608 101.173 142.792 101.317C142.984 101.453 143.244 101.521 143.572 101.521C143.884 101.521 144.164 101.449 144.412 101.305C144.66 101.153 144.84 100.933 144.952 100.645L145.24 101.509C145.104 101.925 144.856 102.241 144.496 102.457C144.136 102.673 143.672 102.781 143.104 102.781ZM148.639 102.685V96.2286H150.511V102.685H148.639ZM149.575 95.3286C149.231 95.3286 148.951 95.2286 148.735 95.0286C148.519 94.8286 148.411 94.5806 148.411 94.2846C148.411 93.9886 148.519 93.7406 148.735 93.5406C148.951 93.3406 149.231 93.2406 149.575 93.2406C149.919 93.2406 150.199 93.3366 150.415 93.5286C150.631 93.7126 150.739 93.9526 150.739 94.2486C150.739 94.5606 150.631 94.8206 150.415 95.0286C150.207 95.2286 149.927 95.3286 149.575 95.3286ZM152.368 102.685V93.7806H154.24V102.685H152.368Z" fill="#48372D"/>
<rect x="1.76074" y="1.71973" width="195" height="135.042" rx="10" stroke="#48372D" stroke-width="2" stroke-linecap="round" stroke-dasharray="4 4"/>
<path d="M107.273 48.696V60.9282C107.273 61.2697 107.138 61.5972 106.896 61.8387C106.655 62.0802 106.327 62.2158 105.986 62.2158H87.9595C87.618 62.2158 87.2905 62.0802 87.049 61.8387C86.8075 61.5972 86.6719 61.2697 86.6719 60.9282V42.9019C86.6719 42.5604 86.8075 42.2329 87.049 41.9914C87.2905 41.7499 87.618 41.6143 87.9595 41.6143H99.7822" stroke="#48372D" stroke-width="2" stroke-miterlimit="10" stroke-linecap="round" stroke-linejoin="round"/>
<path d="M104.698 41.6154H109.848M107.27 38.9082V44.0586M90.5342 55.1545L94.397 49.9848L96.3284 51.9162L98.5817 48.3753L103.41 55.1545H90.5342Z" stroke="#48372D" stroke-width="2" stroke-miterlimit="10" stroke-linecap="round" stroke-linejoin="round"/>
</svg>
