<svg width="30" height="31" viewBox="0 0 30 31" fill="none" xmlns="http://www.w3.org/2000/svg">
<circle cx="15.395" cy="15.4995" r="14.605" fill="white"/>
<path d="M23.3955 11.5H17.7835L18.9065 8.133C19.1085 7.525 19.0065 6.851 18.6315 6.331C18.2565 5.811 17.6485 5.5 17.0075 5.5H15.3955C15.0985 5.5 14.8175 5.632 14.6265 5.86L9.92651 11.5H7.39551C6.29251 11.5 5.39551 12.397 5.39551 13.5V22.5C5.39551 23.603 6.29251 24.5 7.39551 24.5H20.7025C21.1094 24.4986 21.5063 24.3738 21.8407 24.1421C22.1752 23.9103 22.4314 23.5825 22.5755 23.202L25.3325 15.851C25.3744 15.7387 25.3957 15.6198 25.3955 15.5V13.5C25.3955 12.397 24.4985 11.5 23.3955 11.5ZM7.39551 13.5H9.39551V22.5H7.39551V13.5ZM23.3955 15.319L20.7025 22.5H11.3955V12.862L15.8635 7.5H17.0095L15.4475 12.183C15.3968 12.3333 15.3827 12.4936 15.4062 12.6504C15.4298 12.8073 15.4905 12.9563 15.5832 13.085C15.6758 13.2138 15.7979 13.3186 15.9392 13.3908C16.0804 13.4629 16.2369 13.5004 16.3955 13.5H23.3955V15.319Z" fill="#E24E1B"/>
</svg>
