<svg width="90" height="90" viewBox="0 0 90 90" fill="none" xmlns="http://www.w3.org/2000/svg">
<path d="M10.674 72.87C10.3377 73.1431 10.2859 73.6377 10.5648 73.9692C14.1977 78.2876 18.612 81.8859 23.5789 84.5744C28.5458 87.263 33.9724 88.9913 39.5744 89.6717C40.0045 89.724 40.3903 89.4102 40.435 88.9792C40.4797 88.5483 40.1665 88.1634 39.7364 88.1109C34.3393 87.4519 29.1115 85.7851 24.3258 83.1946C19.5401 80.6042 15.2859 77.1386 11.783 72.9801C11.5039 72.6488 11.0104 72.5969 10.674 72.87Z" fill="#D9D9D9"/>
<path d="M14.3575 60.6109C14.0573 60.7639 13.9374 61.1316 14.0956 61.4291C16.1559 65.3047 18.9277 68.7598 22.2678 71.6129C25.6079 74.466 29.4539 76.6636 33.6039 78.0927C33.9225 78.2024 34.2669 78.0266 34.3711 77.7061C34.4752 77.3856 34.2996 77.0419 33.9811 76.932C29.9835 75.5525 26.2787 73.434 23.0604 70.685C19.8421 67.936 17.1705 64.6079 15.1831 60.8751C15.0247 60.5776 14.6578 60.4579 14.3575 60.6109Z" fill="#D9D9D9"/>
<path d="M1.09541 50.2343C0.665191 50.2856 0.35731 50.6761 0.416091 51.1053C1.33718 57.8316 3.76839 64.2626 7.52745 69.916C7.76734 70.2768 8.25655 70.366 8.6131 70.1198C8.96965 69.8737 9.0585 69.3854 8.81883 69.0245C5.2045 63.5813 2.86483 57.3925 1.97429 50.9196C1.91523 50.4904 1.52562 50.183 1.09541 50.2343Z" fill="#D9D9D9"/>
<path d="M10.6102 45C10.2732 45 9.99944 45.2732 10.0053 45.6101C10.0632 48.9299 10.5932 52.2246 11.5793 55.3951C11.6794 55.7168 12.025 55.8904 12.345 55.7848C12.665 55.6791 12.8381 55.3342 12.7383 55.0123C11.7927 51.9654 11.2835 48.7999 11.2258 45.6101C11.2197 45.2732 10.9471 45 10.6102 45Z" fill="#D9D9D9"/>
</svg>
