<svg width="114" height="114" viewBox="0 0 114 114" fill="none" xmlns="http://www.w3.org/2000/svg">
<path d="M101.065 53.3563C101.497 53.3206 101.819 52.9415 101.776 52.5104C101.098 45.7552 98.9011 39.2406 95.3489 33.4549C95.1222 33.0857 94.6365 32.9789 94.2713 33.212C93.9061 33.4451 93.7997 33.9298 94.0261 34.2992C97.4413 39.8695 99.5557 46.1388 100.212 52.6397C100.255 53.0708 100.633 53.392 101.065 53.3563Z" fill="#D9D9D9"/>
<path d="M91.2806 59.7411C91.6165 59.7679 91.9111 59.5174 91.9321 59.1811C92.139 55.8673 91.8734 52.5408 91.1431 49.3018C91.069 48.9731 90.7383 48.7725 90.4109 48.8524C90.0835 48.9322 89.8834 49.2622 89.9573 49.591C90.657 52.7036 90.9123 55.8996 90.7155 59.0838C90.6947 59.4202 90.9447 59.7142 91.2806 59.7411Z" fill="#D9D9D9"/>
</svg>
