<svg width="90" height="90" viewBox="0 0 90 90" fill="none" xmlns="http://www.w3.org/2000/svg">
<path d="M85.9236 28.2586C86.3246 28.0946 86.5173 27.6362 86.3463 27.2381C83.6666 21.0003 79.61 15.4494 74.4808 11.0017C74.1534 10.7178 73.6581 10.7622 73.38 11.0945C73.1019 11.4267 73.1464 11.921 73.4735 12.205C78.4073 16.4886 82.3111 21.8305 84.8939 27.8323C85.0652 28.2302 85.5226 28.4227 85.9236 28.2586Z" fill="#D9D9D9"/>
<path d="M78.5151 37.2931C78.8435 37.2175 79.0491 36.8899 78.9678 36.5629C78.1675 33.3405 76.9126 30.2484 75.241 27.3796C75.0714 27.0884 74.6957 26.9967 74.4075 27.1714C74.1194 27.3461 74.0279 27.721 74.1974 28.0123C75.8017 30.7698 77.0074 33.7407 77.7784 36.8364C77.8598 37.1634 78.1867 37.3686 78.5151 37.2931Z" fill="#D9D9D9"/>
</svg>
