<svg width="90" height="90" viewBox="0 0 90 90" fill="none" xmlns="http://www.w3.org/2000/svg">
<path d="M68.3181 82.567C68.5466 82.9351 69.0307 83.0489 69.3947 82.814C75.0997 79.1336 79.8981 74.2099 83.4302 68.412C83.6556 68.0419 83.5294 67.561 83.1555 67.342C82.7817 67.1231 82.3017 67.2492 82.076 67.619C78.6732 73.1969 74.0554 77.9352 68.5672 81.4807C68.2032 81.7158 68.0896 82.1989 68.3181 82.567Z" fill="#D9D9D9"/>
<path d="M67.0388 71.3998C67.2548 71.6585 67.64 71.6936 67.8948 71.4731C70.4062 69.3012 72.5958 66.7829 74.3977 63.9941C74.5806 63.7111 74.4923 63.3345 74.2061 63.1566C73.9199 62.9787 73.5442 63.0668 73.3611 63.3497C71.6281 66.0283 69.5244 68.4478 67.1127 70.5362C66.8579 70.7568 66.8229 71.1411 67.0388 71.3998Z" fill="#D9D9D9"/>
</svg>
