<svg width="90" height="90" viewBox="0 0 90 90" fill="none" xmlns="http://www.w3.org/2000/svg">
<path d="M41.0647 89.04C41.0261 89.4716 41.3447 89.8534 41.7769 89.8844C47.4056 90.2886 53.0625 89.6306 58.4522 87.9423C63.8418 86.2539 68.8631 83.5668 73.2552 80.0235C73.5924 79.7514 73.6362 79.2561 73.3583 78.9237C73.0805 78.5913 72.5861 78.5477 72.2488 78.8195C68.0149 82.2308 63.1761 84.8183 57.9831 86.445C52.7901 88.0718 47.34 88.7075 41.9165 88.3214C41.4843 88.2907 41.1032 88.6085 41.0647 89.04Z" fill="#D9D9D9"/>
<path d="M33.5445 77.4258C33.4323 77.7436 33.5987 78.0927 33.9184 78.1994C38.0817 79.5891 42.4711 80.1838 46.8577 79.9507C51.2443 79.7175 55.546 78.6608 59.5386 76.8376C59.8451 76.6976 59.9736 76.3328 59.8283 76.0287C59.683 75.7247 59.3189 75.5966 59.0123 75.7363C55.1644 77.4906 51.0195 78.5074 46.793 78.7321C42.5664 78.9567 38.3371 78.385 34.3249 77.0486C34.0052 76.9421 33.6568 77.1081 33.5445 77.4258Z" fill="#D9D9D9"/>
</svg>
