<svg width="90" height="90" viewBox="0 0 90 90" fill="none" xmlns="http://www.w3.org/2000/svg">
<path d="M54.8817 1.90287C54.9785 1.48056 54.7148 1.05901 54.2909 0.969555C47.6481 -0.43216 40.7739 -0.312621 34.1839 1.31921C33.7633 1.42335 33.5144 1.85382 33.6258 2.2725C33.7373 2.69118 34.1669 2.9395 34.5876 2.83563C40.9309 1.26913 47.5462 1.15409 53.9401 2.49909C54.3641 2.58828 54.7849 2.32517 54.8817 1.90287Z" fill="#D9D9D9"/>
<path d="M57.5351 12.9761C57.658 12.6623 57.5033 12.3078 57.1874 12.1905C54.0749 11.0343 50.8137 10.3269 47.502 10.0895C47.1658 10.0655 46.8782 10.324 46.86 10.6605C46.8418 10.997 47.0998 11.284 47.4359 11.3083C50.6179 11.5383 53.7513 12.218 56.7426 13.327C57.0585 13.4441 57.4123 13.2899 57.5351 12.9761Z" fill="#D9D9D9"/>
</svg>
