<svg width="25" height="25" viewBox="0 0 25 25" fill="none" xmlns="http://www.w3.org/2000/svg">
<path d="M10.5 4.55469V8.55469H14.5V4.55469H10.5ZM16.5 4.55469V8.55469H20.5V4.55469H16.5ZM16.5 10.5547V14.5547H20.5V10.5547H16.5ZM16.5 16.5547V20.5547H20.5V16.5547H16.5ZM14.5 20.5547V16.5547H10.5V20.5547H14.5ZM8.5 20.5547V16.5547H4.5V20.5547H8.5ZM8.5 14.5547V10.5547H4.5V14.5547H8.5ZM8.5 8.55469V4.55469H4.5V8.55469H8.5ZM10.5 14.5547H14.5V10.5547H10.5V14.5547ZM4.5 2.55469H20.5C21.0304 2.55469 21.5391 2.7654 21.9142 3.14047C22.2893 3.51555 22.5 4.02425 22.5 4.55469V20.5547C22.5 21.0851 22.2893 21.5938 21.9142 21.9689C21.5391 22.344 21.0304 22.5547 20.5 22.5547H4.5C3.42 22.5547 2.5 21.6547 2.5 20.5547V4.55469C2.5 4.02425 2.71071 3.51555 3.08579 3.14047C3.46086 2.7654 3.96957 2.55469 4.5 2.55469Z" fill="white"/>
</svg>
