<svg width="39" height="40" viewBox="0 0 39 40" fill="none" xmlns="http://www.w3.org/2000/svg">
<rect width="39" height="40" rx="19.5" fill="white"/>
<path d="M9 15.875C9 14.9799 9.35558 14.1214 9.98851 13.4885C10.6214 12.8556 11.4799 12.5 12.375 12.5H19.875C20.7701 12.5 21.6285 12.8556 22.2615 13.4885C22.8944 14.1214 23.25 14.9799 23.25 15.875V24.125C23.25 25.0201 22.8944 25.8785 22.2615 26.5115C21.6285 27.1444 20.7701 27.5 19.875 27.5H12.375C11.4799 27.5 10.6214 27.1444 9.98851 26.5115C9.35558 25.8785 9 25.0201 9 24.125V15.875ZM29.997 15.3155C29.997 13.955 28.47 13.154 27.3503 13.9265L24.375 15.9815V24.0185L27.351 26.0735C28.47 26.846 29.997 26.045 29.997 24.6845V15.3155Z" fill="#FB5935"/>
</svg>
